<svg width="137" height="158" viewBox="0 0 137 158" fill="none" xmlns="http://www.w3.org/2000/svg">
<path d="M72.8624 125.57C73.0963 125.659 73.3418 125.7 73.5788 125.689C73.8159 125.678 74.0378 125.616 74.2265 125.508L79.3601 123.486C79.559 123.411 79.78 123.353 80.0435 123.262C80.0638 123.717 79.9052 124.138 79.5952 124.453C79.1827 124.987 78.7363 125.501 78.3101 126.041C78.1986 126.2 78.1038 126.368 78.0268 126.545L78.1538 126.677C78.3094 126.625 78.4544 126.556 78.5858 126.471C79.2211 125.868 79.8682 125.269 80.4695 124.646C80.8474 124.285 81.0634 123.804 81.0847 123.275C81.0784 123.099 81.1281 122.933 81.2279 122.797C81.3278 122.66 81.4738 122.558 81.6491 122.503C82.3174 122.221 82.9909 121.908 83.6253 121.606C83.7461 121.553 83.8871 121.526 84.0197 121.476C84.2579 121.981 84.4893 122.452 84.6833 122.924C84.8407 123.318 84.8255 123.728 84.6411 124.063C84.3422 124.66 84.0297 125.264 83.7291 125.871C83.6198 126.078 83.5445 126.304 83.4572 126.528L83.576 126.56C83.673 126.5 83.8141 126.474 83.867 126.381C84.4333 125.523 85.0132 124.658 85.5473 123.77C85.6608 123.542 85.704 123.282 85.673 123.015C85.642 122.748 85.5378 122.481 85.3697 122.239C85.1668 121.894 84.9776 121.541 84.7477 121.135C85.593 120.88 86.4867 120.724 87.4089 120.671C87.6485 120.65 87.9555 120.819 88.1575 120.873C88.2754 121.021 88.3569 121.186 88.3954 121.355C88.4339 121.524 88.4283 121.693 88.379 121.847C88.2953 122.366 88.3833 122.919 88.6328 123.442C88.7324 123.615 88.8503 123.78 88.9848 123.935L89.1632 123.908C89.1908 123.744 89.159 123.563 89.151 123.389C89.1099 122.894 89.1044 122.409 89.0242 121.925C88.944 121.441 88.796 120.917 88.6583 120.331C88.733 120.276 88.812 120.226 88.8948 120.18C89.6059 119.829 90.2074 119.341 90.6636 118.744C91.0275 118.283 91.54 117.938 92.1475 117.747C92.7982 117.52 93.4123 117.232 93.981 116.887C94.2788 116.756 94.5265 116.557 94.7042 116.308C94.8818 116.059 94.9846 115.767 95.0041 115.454C95.8617 115.263 96.7611 115.177 97.68 115.198C98.8554 115.225 100.024 115.218 101.189 115.232C101.994 115.245 102.798 115.269 103.657 115.329C103.874 115.361 104.09 115.419 104.299 115.502L104.845 115.65C105.068 115.355 104.852 115.167 104.645 114.993C104.423 114.833 104.172 114.713 103.909 114.642C103.646 114.571 103.378 114.55 103.124 114.583C102.783 114.604 102.45 114.655 102.13 114.733C100.981 114.972 99.7581 115.006 98.5235 114.835C97.4453 114.668 96.3743 114.689 95.3708 114.897C95.2655 114.912 95.1566 114.915 95.0463 114.906C95.0463 114.906 94.9632 114.884 94.8562 114.855C94.9102 114.707 94.9958 114.573 95.1087 114.461C95.5118 114.16 95.9471 113.892 96.4103 113.662C97.8112 112.98 99.0687 112.111 100.148 111.08C100.917 110.417 101.617 109.724 102.446 109.077C102.94 108.686 103.552 108.422 104.23 108.31C104.908 108.197 105.633 108.239 106.343 108.431C106.664 108.518 107.02 108.614 107.24 108.265C107.135 108.15 107.044 107.954 106.893 107.891C106.52 107.7 106.123 107.564 105.719 107.488C105.083 107.397 104.453 107.426 103.872 107.573C103.291 107.719 102.771 107.981 102.346 108.341C101.624 108.942 100.899 109.563 100.243 110.214C98.9484 111.487 97.3853 112.519 95.6199 113.266C95.2558 113.396 94.9182 113.568 94.6146 113.779C94.4011 113.936 94.1391 114.036 93.8516 114.071C93.5641 114.105 93.2601 114.074 92.9664 113.979C93.1318 113.734 93.2649 113.533 93.4081 113.346C100.201 103.955 106.611 94.3324 112.924 84.6189C117.24 77.9516 121.015 70.9651 124.223 63.7043C125.579 60.7519 126.657 57.671 127.446 54.4897C128.166 52.0058 128.347 49.3508 127.979 46.6558C127.829 45.6259 127.494 44.5983 126.987 43.6139C126.39 42.393 125.463 41.2862 124.302 40.406C123.141 39.5259 121.786 38.9038 120.376 38.6031C119.209 38.3675 118.038 38.3636 116.95 38.5918C114.54 39.0088 112.281 39.7813 110.257 40.8806C109.001 41.5522 107.786 42.2778 106.572 43.0035C104.672 44.1443 102.612 45.0834 100.425 45.8056C98.808 46.3034 97.1259 46.6727 95.3961 46.9097C91.7822 47.3774 88.2816 48.1637 84.9416 49.258C82.329 50.0187 79.9153 51.138 77.7764 52.5806C77.0241 53.1409 76.3309 53.7923 75.621 54.3962L75.1527 54.8181C74.9615 54.5514 74.8228 54.342 74.6841 54.1325C72.7067 51.1148 70.7345 48.0663 68.7485 45.1001C67.6658 43.6166 66.4975 42.1775 65.2494 40.7898C64.4818 39.899 63.5681 39.1103 62.5482 38.4583C61.5282 37.7362 60.3143 37.3164 59.1115 37.2698C57.9088 37.2231 56.7909 37.5525 55.9465 38.2023C54.9131 38.9742 54.0281 39.8894 53.3164 40.9218C52.4845 42.0304 51.7 43.1518 50.9037 44.2699C49.7591 45.8444 48.3675 47.2465 46.763 48.4416C45.2865 49.5446 43.5835 50.3986 41.7181 50.9714L39.8939 51.5539C38.3377 52.0071 37.0701 52.9304 36.2816 54.1852C35.493 55.44 35.2262 56.9585 35.5213 58.5122C35.797 60.0981 36.3731 61.6724 37.2241 63.1653C38.4583 65.4072 39.927 67.5655 41.6074 69.6066C42.6229 70.956 43.7846 72.2482 44.8782 73.5757C45.034 73.7575 45.1761 73.9465 45.4216 74.26L44.9226 74.1253C43.8861 73.7176 42.8061 73.466 41.7313 73.3817C39.7198 73.2613 37.6915 72.8335 35.7336 72.1168C33.7499 71.3901 31.6752 71.073 29.679 71.1914C28.4424 71.3157 27.2923 71.6833 26.306 72.2696C24.7577 73.0039 23.6159 74.2292 23.0641 75.7486C22.884 76.266 22.768 76.8076 22.7182 77.3647C22.628 78.6637 21.9932 79.8098 20.936 80.5821C18.7083 82.2944 16.8027 84.3118 15.2718 86.5787C13.6099 88.7604 12.3256 91.1842 11.4539 93.7836C9.94498 98.0007 10.3153 102.819 12.4953 107.333C13.1366 108.601 13.9726 109.805 14.9757 110.905C15.6056 111.592 16.2406 112.322 16.8231 112.995C17.3047 113.542 17.7069 114.136 18.0174 114.759C18.4475 115.788 19.1748 116.733 20.1171 117.487C21.0595 118.242 22.1791 118.775 23.3495 119.026C24.9653 119.463 26.59 119.773 28.2113 120.103C28.6312 120.185 29.0328 120.379 29.3597 120.66C30.1869 121.281 31.0277 121.896 31.9197 122.427C32.8382 122.997 33.9036 123.285 34.9257 123.239C35.8973 123.221 36.869 123.204 37.8473 123.221C38.2519 123.236 38.6597 123.282 39.0665 123.357C39.2753 123.388 39.4807 123.462 39.6669 123.572C39.8531 123.682 40.015 123.825 40.14 123.991C40.84 124.862 41.76 125.585 42.8049 126.084C43.8498 126.584 44.9819 126.842 46.084 126.832C47.3812 126.916 48.6668 126.904 49.928 126.795C53.0779 126.63 56.2929 126.778 59.5171 127.235C61.4485 127.453 63.3745 127.567 65.2845 127.577C67.8818 127.572 70.3392 126.996 72.447 125.899C72.5118 125.809 72.6649 125.71 72.8624 125.57ZM94.9227 47.9538C94.8831 48.7817 94.8659 49.4759 94.8131 50.1605C94.6949 51.7521 94.5445 53.3135 94.433 54.9392C94.3076 56.7224 94.2041 58.5223 94.1024 60.3118C93.9756 62.5462 93.8964 64.7935 93.7578 67.0247C93.629 69.2959 93.6334 71.5903 93.7712 73.8987C93.8929 76.5765 94.0384 79.2608 94.1109 81.936C94.1834 84.6113 94.1727 87.2641 94.1841 89.9336C94.2631 92.2754 94.1602 94.5935 93.8763 96.8714C93.7036 97.9 93.6177 98.8552 93.3824 99.8131C93.0173 101.618 92.5793 103.413 92.1904 105.211C91.8981 106.508 91.7484 107.844 91.3729 109.119C90.8255 111.122 90.1831 113.099 89.5883 115.088C89.5271 115.232 89.4541 115.371 89.3697 115.502C89.3224 115.414 89.2902 115.384 89.2954 115.353C89.3407 113.677 89.3878 111.991 89.4468 110.308C89.5114 108.444 89.6099 106.6 89.649 104.74C89.6931 102.257 89.6779 99.7588 89.7409 97.2384C89.8036 94.2018 89.7831 91.1428 89.6149 88.0761C89.5184 85.2204 89.0318 82.3306 88.1658 79.4704C87.6623 77.8829 87.0942 76.3103 86.611 74.7498C86.4061 74.1262 86.3031 73.4931 86.3053 72.8717C86.3617 70.9086 86.4638 68.9686 86.6152 67.0311C86.7666 65.0937 86.9766 63.4731 87.187 61.7021C87.6623 57.4653 88.4347 53.3086 89.2903 49.1744C89.3141 49.0921 89.3521 49.0154 89.403 48.9468C91.2639 48.5892 92.9907 48.2169 94.9227 47.9538ZM91.4684 111.435L91.3853 111.413C91.3914 111.339 91.4035 111.267 91.4215 111.197C92.2323 107.921 93.0549 104.649 93.8656 101.374C94.2091 99.9933 94.517 98.6035 94.8605 97.2233C95.3603 95.2079 95.9552 93.2182 96.3481 91.1739C97.3453 86.3072 98.0162 81.3477 98.3575 76.32C98.5339 73.3463 98.8528 70.4112 99.1479 67.4696C99.3697 65.2609 99.661 63.0817 99.9167 60.8929C100.348 56.7417 101.223 52.6979 102.528 48.8142C102.827 47.7278 103.373 46.7391 104.135 45.9042C104.458 45.5669 104.882 45.3202 105.37 45.1858C105.858 45.0514 106.396 45.0335 106.934 45.1335C107.183 45.157 107.429 45.2574 107.629 45.4174C107.829 45.5774 107.97 45.7869 108.029 46.0098C108.137 46.3006 108.217 46.5956 108.266 46.891C108.387 47.8774 108.333 48.85 108.106 49.772C107.798 51.6028 107.35 53.3849 107.054 55.2189C106.759 57.0529 106.56 59.0527 106.324 60.978C106.182 61.8214 106.1 62.6809 106.077 63.5564C105.902 66.0036 105.753 68.4469 105.343 70.8845C104.9 73.5245 104.312 76.118 103.578 78.6651C103.031 80.5924 102.426 82.4934 101.807 84.4015C101.189 86.3096 100.536 88.273 99.8431 90.1824C98.4295 94.0154 96.9888 97.8374 95.521 101.649C94.6142 104.016 93.6599 106.371 92.6938 108.723C92.3822 109.617 91.9144 110.48 91.4684 111.435ZM27.3813 108.105C27.5819 107.429 27.7856 106.881 27.8942 106.309C27.9777 105.905 28.1989 105.552 28.5296 105.294C28.8603 105.037 29.2856 104.887 29.7513 104.864C30.8374 104.706 31.9729 104.711 33.1144 104.88L39.6988 105.905C41.9976 106.268 44.3119 106.614 46.6073 106.997C48.4148 107.366 50.2239 107.309 51.8513 106.833C52.7439 106.547 53.6837 106.349 54.6253 106.141C56.1963 105.802 57.8609 105.711 59.552 105.869C61.4807 106.111 63.4027 106.623 65.2466 107.386C65.9232 107.636 66.5555 108.004 67.1018 108.467C69.0084 110.057 70.9268 111.651 72.8452 113.244C75.8956 115.798 79.4574 117.771 83.2536 119.011C83.6814 119.127 84.097 119.315 84.6349 119.514L84.2014 119.654C82.5505 120.102 80.7434 120.177 78.9233 119.874C76.5971 119.552 74.3045 118.73 72.2459 117.48C69.9922 116.108 67.7127 114.89 65.4262 113.713C63.0244 112.496 60.4305 111.74 57.8362 111.502C55.8619 111.362 53.9041 111.369 51.9828 111.524C50.625 111.65 49.2416 111.679 47.8448 111.61C45.3707 111.361 42.8921 110.983 40.4217 110.477C39.3284 110.257 38.2401 110.081 37.1434 109.882L32.9312 109.153L29.5169 108.553L27.3813 108.105ZM104.426 95.5811C104.457 95.3959 104.466 95.3445 104.475 95.2931C105.459 93.2042 106.421 91.0986 107.417 89.0129C109.013 85.6485 110.352 82.1826 111.566 78.6505C112.222 76.7418 112.774 74.7836 113.522 72.9211C115.198 68.7826 116.31 64.4491 117.798 60.249C118.363 58.6598 118.814 57.0076 119.264 55.3657C119.713 53.7238 120.208 51.8145 120.62 50.0228C120.914 48.7905 121.138 47.5286 121.385 46.2834C121.491 45.6605 121.732 45.0799 122.094 44.5719C122.241 44.3131 122.465 44.1025 122.746 43.9593C123.026 43.8162 123.354 43.7451 123.699 43.7526C124.044 43.7602 124.395 43.846 124.72 44.0024C125.045 44.1588 125.334 44.3806 125.559 44.6475C125.783 44.8656 125.977 45.1061 126.135 45.362C126.844 46.4544 127.227 47.6562 127.241 48.8326C127.23 50.45 127.039 52.0369 126.669 53.5702C125.822 57.0538 124.653 60.4269 123.175 63.6579C120.722 69.2423 117.755 74.5589 114.721 79.8357C111.686 85.1125 108.148 90.0597 104.789 95.12C104.708 95.2377 104.614 95.3522 104.426 95.5811ZM27.2396 114.572L27.9623 114.262C29.1371 113.865 30.3975 113.633 31.7045 113.574L42.8517 112.574C46.8886 112.202 50.9304 111.874 55.0362 111.757C57.1044 111.671 59.2323 111.925 61.3189 112.507C62.3393 112.787 63.3431 113.148 64.3174 113.586C66.915 114.787 69.4389 116.148 71.8683 117.657C73.0621 118.411 74.3552 119.004 75.6972 119.412C76.1962 119.546 76.6713 119.75 77.1634 119.926C77.0859 119.992 76.9783 120.024 76.8625 120.017C75.3661 119.978 73.8629 119.981 72.3531 119.874C71.2607 119.8 70.1619 119.629 69.0729 119.364C67.8847 119.044 66.7903 118.608 65.6618 118.228C63.1959 117.377 60.6741 116.765 58.1438 116.402C54.5133 115.907 50.9062 115.897 47.4428 116.372C44.3738 116.83 41.3662 117.453 38.4351 118.241C35.8482 118.854 33.331 119.421 30.7646 119.986C29.8876 120.179 29.6824 120.07 29.0627 119.322C28.9081 119.14 28.77 118.948 28.6498 118.748C27.9005 117.408 27.422 115.991 27.2396 114.572V114.572ZM88.9781 113.988L88.9068 113.969C88.9224 113.876 88.853 113.771 88.843 113.683C88.5843 112.043 88.2745 110.411 88.0887 108.781C87.84 106.563 87.7458 104.387 87.4615 102.16C87.0171 98.8145 86.4507 95.3822 85.9759 91.9962C84.9312 84.494 83.2395 76.984 80.9164 69.5348C79.9032 66.3848 79.361 63.1922 79.305 60.0466C79.2072 58.7053 79.4255 57.4052 79.9456 56.2307C81.0405 54.3209 82.4738 52.6139 84.1992 51.1649C84.2724 51.0986 84.3338 51.0292 84.3951 50.9597C84.5027 51.1615 84.5602 51.3758 84.5633 51.5857L84.4633 53.9564C84.41 55.458 84.3192 56.9602 84.2997 58.4817C84.2803 60.0032 84.304 61.859 84.3673 63.5534C84.4038 65.9713 84.675 68.4151 85.1779 70.8577C85.7823 73.4537 86.5465 76.0401 87.4667 78.6042C88.1777 80.7022 88.6535 82.8268 88.8863 84.9441C89.3122 89.5771 89.4464 94.1866 89.2883 98.7505C89.2669 100.357 89.2455 101.964 89.2105 103.579C89.1755 105.193 89.1258 106.598 89.0843 108.103L88.964 111.705L88.9781 113.988ZM73.6028 61.9043C74.2368 61.2219 75.0324 60.6775 75.9462 60.3008C76.8968 59.8909 77.4635 60.1407 77.9211 61.1137C78.0228 61.3228 78.1074 61.5361 78.1741 61.7518C78.3995 62.5546 78.6623 63.3567 78.8249 64.1639C79.2671 66.5517 79.8664 68.9359 80.6194 71.3039C82.6672 77.6103 84.1367 83.9778 85.0123 90.3383C85.7515 95.1827 86.5025 100.03 86.9615 104.842C87.3163 108.647 87.8408 112.477 88.2923 116.297C88.2612 116.482 88.3371 116.696 88.3535 116.894C88.1803 116.766 88.0516 116.594 87.988 116.409C87.4419 114.853 86.8958 113.297 86.4007 111.733C86.074 110.72 85.8628 109.685 85.5361 108.672C83.7006 102.663 82.2275 96.6185 81.1236 90.5676C80.369 86.2273 79.2231 81.8939 77.6974 77.6111C76.625 74.7518 75.7649 71.8853 74.9966 68.9898C74.4204 66.6516 73.9734 64.2838 73.6028 61.9043ZM46.5794 87.4856C46.7072 87.3159 46.7448 87.24 46.8061 87.1705C47.9366 85.9926 49.554 85.2709 51.3844 85.1276C52.0708 85.0756 52.7923 85.2179 53.4521 85.5355C54.5792 86.0254 55.634 86.6739 56.5706 87.4528C57.4704 88.2334 58.4058 89.0236 59.3143 89.7528C60.6444 90.9291 61.9899 92.0881 63.2469 93.3307C65.2424 95.2781 67.1665 97.2814 69.1265 99.2192L71.7858 101.948C72.4752 102.65 73.1339 103.387 73.9185 104.04C76.7668 106.605 79.6577 109.138 82.5602 111.75C84.2361 113.25 85.6827 114.939 86.849 116.757C87.2294 117.376 87.5911 118.032 87.9937 118.668L86.9104 119.128C86.6189 118.983 86.3346 118.824 86.059 118.651C85.447 118.228 84.8384 117.784 84.2434 117.333C80.0279 114.108 75.9657 110.711 71.9171 107.306C69.892 105.608 67.969 103.82 66.1158 101.987C64.2626 100.153 62.7176 98.6282 60.9692 96.9841C59.1378 95.1539 57.1029 93.4928 54.9069 92.0354C53.5012 91.1612 52.0084 90.4355 50.5533 89.634C49.1741 88.9712 47.9157 88.2551 46.5794 87.4856ZM82.7742 111.141L82.6517 111.204L82.3009 110.927C80.2133 109.084 78.112 107.247 76.0398 105.387C74.9079 104.361 73.8051 103.31 72.7294 102.246C71.6537 101.181 70.6156 100.041 69.557 98.9484C68.197 97.506 66.7994 96.1394 65.4443 94.7413C63.9558 93.1285 62.3687 91.5867 60.6925 90.1249C58.6029 88.3672 56.51 86.63 54.4494 84.8479C53.9484 84.3763 53.5094 83.8564 53.144 83.3019C52.9786 83.0433 52.8804 82.7621 52.8581 82.4825C52.8358 82.2029 52.89 81.9334 53.0159 81.6976C53.3735 80.96 53.9113 80.3221 54.5956 79.8241C55.2799 79.3261 56.0957 78.9787 56.9918 78.8038C57.9613 78.6485 59.0094 78.7789 59.9908 79.1769C60.9721 79.5748 61.8381 80.2206 62.4687 81.0248C63.2366 82.2213 64.1507 83.3606 64.9067 84.5539C66.0162 86.305 67.0474 88.078 68.0923 89.8439C69.3316 91.9311 70.5455 94.0222 71.7593 96.1133C72.4339 97.2739 73.0931 98.4519 73.7676 99.6124C74.8429 101.495 76.1466 103.291 77.6512 104.962C78.9304 106.368 80.1874 107.783 81.4223 109.206C81.9233 109.847 82.3207 110.513 82.7742 111.141ZM89.7588 117.328C89.7829 117.184 89.7203 117.113 89.7985 117.091C90.2669 116.003 90.7234 114.911 91.2156 113.829C92.3282 111.345 93.5222 108.893 94.5534 106.376C95.8188 103.277 96.969 100.126 98.1292 96.9878C99.0362 94.5448 99.9313 92.0985 100.789 89.653C101.595 87.3655 102.391 85.0646 103.126 82.7579C103.73 80.8672 104.309 78.9701 104.793 77.0473C105.212 75.1058 105.85 73.2364 106.699 71.4657C108.007 68.9267 109.291 66.3813 110.576 63.8359C112.034 60.961 113.224 57.9539 114.135 54.8409C114.007 55.6021 113.9 56.2398 113.79 56.898C113.394 59.2534 112.892 61.5799 112.427 63.9057C112.301 64.6566 112.104 65.3882 111.894 66.1165C111.507 67.5386 111.107 68.9574 110.672 70.3666C110.236 71.7758 109.829 73.0204 109.387 74.3204C108.945 75.6203 108.42 77.0482 107.964 78.4304C107.508 79.8126 106.928 81.4944 106.445 83.0412C106.047 84.2993 105.65 85.5574 105.334 86.8483C104.751 89.2822 104.286 91.7585 103.657 94.1692C103.317 95.5075 102.835 96.7952 102.217 98.0163C100.849 100.69 99.3112 103.263 97.6346 105.778C95.1597 109.497 92.3236 112.999 90.1268 116.911C90.0206 117.095 89.8921 117.265 89.7432 117.42L89.7588 117.328ZM68.4635 73.4294C68.088 72.8549 67.6701 72.2367 67.2694 71.5909C66.204 69.8732 65.1096 68.1799 64.1105 66.4371C62.2005 63.0183 60.3061 59.507 58.0543 56.2002C57.0063 54.7031 56.1288 53.132 55.4378 51.5154C55.0375 50.5552 54.7154 49.5804 54.4742 48.5995C54.3437 48.0266 54.3223 47.4534 54.4109 46.9051C54.4528 46.6745 54.5473 46.4611 54.6888 46.2772C54.8303 46.0933 55.0161 45.9426 55.2354 45.8338C55.4547 45.725 55.7031 45.6603 55.9663 45.6434C56.2294 45.6265 56.502 45.6578 56.7683 45.7354C57.2027 45.8502 57.6224 46.0328 58.0068 46.2742C59.1993 46.9929 60.2254 47.9337 60.999 49.0175C61.7604 50.1048 62.4691 51.2101 63.176 52.3256C64.0588 53.7253 64.8481 55.1641 65.7836 56.5457C67.6058 59.2375 69.062 62.0777 70.1156 64.9945C70.2447 65.3684 70.3107 65.7489 70.3113 66.1225C70.3287 67.2024 70.2746 68.3383 70.2886 69.4387C70.3178 70.8858 70.5815 72.3548 71.0715 73.8004C71.056 73.8929 71.1219 74.0182 71.1487 74.1545L68.4635 73.4294ZM95.2116 47.935C96.3652 47.7871 97.5857 47.8956 98.7726 48.2516C99.0865 48.3403 99.3838 48.493 99.6392 48.6967C99.8947 48.9004 100.101 49.1492 100.24 49.4221C100.542 49.9697 100.664 50.5612 100.589 51.1182C100.363 52.4656 100.206 53.8426 100.002 55.2067C99.6204 57.4798 99.2981 59.7689 98.9623 62.0651C98.8362 62.8159 98.7696 63.5828 98.6911 64.3465C98.4447 66.8496 98.1966 69.3631 97.9621 71.8694C97.8311 73.1673 97.7239 74.4716 97.6167 75.7758C97.4655 77.6381 97.3619 79.5132 97.1632 81.3626C96.9644 83.212 96.6454 84.9644 96.4536 86.7726C96.0381 89.8284 95.4139 92.8301 94.5842 95.7617C94.5304 95.9143 94.4642 96.0616 94.386 96.2027C94.3833 95.3311 94.4739 94.4954 94.4915 93.6508C94.5211 91.5514 94.5257 89.4525 94.5054 87.354C94.4869 84.8008 94.4549 82.2547 94.3753 79.6958C94.2689 75.7427 93.8349 71.744 94.0411 67.7785C94.1061 66.3554 94.1967 64.9283 94.2685 63.5392L94.4457 59.5982C94.5106 58.2502 94.5772 56.892 94.6539 55.5472C94.7233 54.394 94.842 53.2433 94.9233 52.0934C95.0611 50.7543 95.1294 49.3858 95.2116 47.935ZM30.5523 120.585C30.6608 120.538 30.7751 120.5 30.894 120.473C34.4735 119.644 38.0548 118.804 41.6427 117.999C44.788 117.228 48.0554 116.739 51.4017 116.538C54.082 116.381 56.8307 116.552 59.5756 117.047C62.0765 117.559 64.5551 118.275 66.979 119.186C67.4424 119.311 67.9003 119.542 68.4484 119.755C67.3068 119.823 66.2824 119.858 65.2698 119.972C61.8338 120.305 58.5252 121.029 55.4188 122.128C53.3239 122.883 51.1464 123.492 48.9031 123.949C46.4849 124.385 43.912 124.348 41.3447 123.843C41.1919 123.829 41.0392 123.783 40.8986 123.71C40.758 123.636 40.6332 123.537 40.5339 123.42C40.3681 123.211 40.1589 123.031 39.921 122.89C39.683 122.75 39.4218 122.653 39.1552 122.607C38.608 122.5 38.059 122.431 37.5132 122.4C36.5995 122.368 35.6924 122.37 34.7819 122.393C34.0206 122.357 33.2509 122.177 32.5225 121.865C31.7941 121.554 31.123 121.117 30.5523 120.585V120.585ZM86.7151 115.409L86.6079 115.455L86.2778 115.054C85.0122 113.272 83.75 111.469 82.4536 109.721C81.1448 107.867 80.1488 105.881 79.5041 103.839C78.6077 101.188 77.6349 98.5494 76.6484 95.9176C75.2773 92.3218 73.8468 88.71 72.4758 85.1142C71.7088 83.017 70.7818 80.9485 69.702 78.9247C69.2061 78.0617 68.8473 77.1566 68.6375 76.2396C68.5588 75.9858 68.5604 75.7284 68.6419 75.498C68.7235 75.2676 68.8817 75.0738 69.0978 74.9397C69.3138 74.8056 69.5787 74.7368 69.8608 74.7414C70.143 74.7461 70.4306 74.824 70.6895 74.9659C71.2383 75.241 71.7585 75.5692 72.2394 75.9436C73.5373 76.9506 74.5314 78.2366 75.0964 79.6396C75.8981 81.5226 76.6997 83.4056 77.3094 85.3228C79.071 90.8089 80.7426 96.3137 82.4364 101.76C83.8169 106.261 84.9868 110.76 86.6377 115.13C86.6714 115.225 86.6814 115.314 86.7151 115.409ZM39.7285 91.9683L39.0575 91.3786C35.9962 88.532 32.6973 85.8995 29.2001 83.5127C27.8417 82.5599 26.6873 81.3821 25.8175 80.0618C25.4513 79.518 25.2272 78.9221 25.1649 78.3265C25.1205 77.4444 25.264 76.5892 25.588 75.8066C25.6536 75.4157 25.8601 75.0737 25.9884 74.7535C26.8724 75.1105 27.685 75.4482 28.5012 75.7654C28.9527 75.8873 29.4042 76.0093 29.8537 76.2167L34.5698 77.7913C35.1044 77.9357 35.6389 78.1553 36.1597 78.382C38.0448 79.2438 39.8047 80.3622 41.367 81.6913C42.1653 82.3369 43.0214 82.9337 43.8469 83.5652C43.969 83.6519 44.0757 83.756 44.2282 83.8832C42.409 86.3594 41.2496 89.1966 39.7117 91.9208L39.7285 91.9683ZM116.884 41.6489C117.276 41.8524 117.653 42.0837 118.01 42.3401C118.598 42.7949 119.088 43.3451 119.445 43.9521C119.802 44.5592 120.018 45.2087 120.078 45.8552C120.263 47.6638 120.14 49.4434 119.713 51.1327C119.587 51.8835 119.319 52.5959 119.111 53.314C118.549 55.1835 118.012 57.0491 117.416 58.8987C116.785 60.8788 116.084 62.8396 115.429 64.8133C114.326 68.2032 113.269 71.6163 112.144 74.9896C111.344 77.3862 110.496 79.7701 109.698 82.1565C108.471 85.5578 107.017 88.8624 105.341 92.0543C104.957 92.7892 104.575 93.5138 104.18 94.2352C104.151 94.053 104.156 93.8726 104.195 93.7017C104.491 92.459 104.773 91.2234 105.067 89.9911C105.412 88.5253 105.697 87.0538 106.112 85.6177C106.737 83.4428 107.447 81.2904 108.142 79.1451C108.934 76.7246 109.794 74.3337 110.598 71.9164C111.254 69.8573 111.9 67.7846 112.417 65.6664C113.02 63.1843 113.482 60.6534 113.98 58.1321C114.478 55.6108 114.844 52.9894 115.467 50.3838C116.091 47.7783 116.509 45.2892 116.846 42.617C116.809 42.3168 116.842 42.0462 116.884 41.6489ZM86.0405 119.205L86.025 119.298C85.6923 119.208 85.3492 119.18 85.0047 119.087C83.0984 118.54 81.2336 117.81 79.4461 116.908C76.8312 115.565 74.3929 113.91 72.21 111.997C70.1988 110.365 68.1888 108.725 66.1799 107.079C63.7649 105.108 61.0776 103.443 58.2152 102.143C54.9858 100.67 51.9006 98.8876 49.0217 96.8326C48.3043 96.317 47.6123 95.7712 46.9489 95.1977C46.4867 94.7479 46.1219 94.2292 45.8786 93.676C45.6353 93.1229 45.5191 92.5478 45.5377 91.9888C46.2603 92.3453 46.8742 92.6831 47.5223 92.9656C49.8993 93.9731 52.2933 94.9529 54.6685 95.9707C57.899 97.311 61.0196 98.9246 63.9822 100.787C64.5838 101.187 65.1452 101.637 65.6568 102.131C66.5395 102.94 67.3389 103.801 68.2233 104.599C71.995 108.025 75.9455 111.275 79.9402 114.483C81.9453 116.078 84.0082 117.624 86.0405 119.205ZM28.4677 102.819L27.7509 102.797C25.8828 102.68 23.9894 102.491 22.1245 102.428C18.9219 102.306 15.6884 101.872 12.4801 101.135L11.684 100.92C11.6336 100.737 11.6023 100.552 11.5904 100.368C11.5841 99.5924 11.5539 98.8102 11.6206 98.0433C11.6608 97.3668 11.877 96.7325 12.2524 96.189C12.6279 95.6455 13.1527 95.2073 13.7864 94.908C15.1512 94.2395 16.7431 93.9288 18.4091 94.006C20.3377 94.1561 22.2758 94.4956 24.1883 95.0184C26.9568 95.6908 29.7185 96.4043 32.5294 97.1204L33.3967 97.3546C31.3852 98.8716 29.7201 100.717 28.4677 102.819V102.819ZM79.9976 106.595L79.8667 106.635C78.8219 105.461 77.7736 104.307 76.8545 103.123C75.186 100.904 73.7298 98.5816 72.5048 96.1856C71.4534 94.3104 70.3971 92.3909 69.2997 90.5678C68.6353 89.4207 67.9063 88.2884 67.2283 87.1484C66.1013 85.2066 64.8565 83.3087 63.5003 81.4646C62.5779 80.2264 61.6454 78.9746 60.8048 77.6939C59.9641 76.4132 60.307 75.85 61.7869 75.6905C63.2228 75.5399 64.7542 75.8734 66.1005 76.6296C67.7327 77.4507 69.0534 78.752 69.7985 80.2732C70.8218 82.4747 71.7201 84.7056 72.4894 86.9564C74.9312 93.4218 77.7756 99.8562 79.9014 106.354C79.925 106.436 79.9366 106.515 79.9619 106.586L79.9976 106.595ZM80.4195 120.579L80.4634 120.688C80.3698 120.727 80.3001 120.773 80.2083 120.802C78.2766 121.488 76.4638 122.368 74.7995 123.427C73.845 124.008 72.8786 124.585 71.8734 125.099C69.8546 126.182 67.4797 126.742 64.9675 126.728C63.0085 126.693 61.0362 126.562 59.0592 126.337C56.0494 125.919 53.0491 125.787 50.1087 125.941C49.0146 126.022 47.9071 126.035 46.8013 126.037C45.742 126.053 44.6579 125.899 43.599 125.581C42.766 125.357 42.001 124.888 41.437 124.255C41.437 124.255 41.5322 124.206 41.5696 124.205L42.422 124.306C45.0412 124.755 47.6455 124.664 50.0307 124.038C52.0094 123.498 53.9405 122.944 55.8837 122.318C59.1444 121.214 62.602 120.484 66.1848 120.143C66.9468 120.075 67.725 120.069 68.5102 120.126C69.8638 120.202 71.2221 120.396 72.5673 120.448C74.9009 120.53 77.2229 120.533 79.5397 120.567L80.4195 120.579ZM105.926 72.2245L105.831 72.1988L105.962 71.4171C106.221 69.8743 106.48 68.3315 106.62 66.7566C106.76 65.1817 106.913 63.61 107.075 62.0518C107.198 60.9455 107.381 59.8552 107.493 58.7457C107.731 56.0006 108.148 53.2951 108.742 50.6427C109.156 48.7911 109.828 47.0268 110.742 45.3876C111.468 44.0446 112.558 42.9192 113.927 42.0977C114.441 41.8278 114.997 41.6172 115.585 41.4702C115.733 41.4215 115.898 41.4097 116.065 41.4361C116.233 41.4624 116.396 41.526 116.541 41.6208C116.558 41.702 116.566 41.7833 116.562 41.8631C116.227 43.8585 115.976 45.8764 115.641 47.8717C115.496 48.7357 115.351 49.5997 115.063 50.4252C114.807 51.4313 114.504 52.4245 114.19 53.4795C113.772 54.861 113.421 56.2824 112.886 57.6216C111.992 59.8388 111.022 62.0391 109.977 64.2225C108.75 66.7942 107.444 69.3229 106.207 71.8811C106.1 72.0027 105.948 72.0908 105.926 72.2245ZM36.7103 95.0024C34.7017 94.0944 32.7406 93.1992 30.776 92.3247C28.8114 91.4501 27.1795 90.6653 25.3418 89.997C23.0018 89.1393 20.7037 88.4757 18.3838 87.7202C17.9799 87.6111 17.6033 87.4126 17.2199 87.2553C17.2706 87.1267 17.3329 87.0034 17.4061 86.8863C18.5302 85.2138 19.9821 83.7613 21.7051 82.5853C22.0037 82.369 22.3341 82.1877 22.6901 82.0449C23.0875 81.8514 23.5473 81.7559 24.0301 81.7664C24.5128 81.7769 25.0042 81.8932 25.462 82.1054C26.9653 82.8114 28.416 83.6278 29.7969 84.5447C33.0568 86.8492 36.1496 89.3524 39.0472 92.0316C39.1735 92.1522 39.2934 92.2779 39.4063 92.4082C38.7357 93.4518 37.8198 94.3332 36.7103 95.0024ZM56.0555 74.6158L55.5696 74.033C53.9647 72.0514 52.3582 70.08 50.767 68.0913C50.3764 67.6205 50.0314 67.1241 49.7366 66.6088C48.6833 64.8191 47.6419 63.0326 46.6413 61.2249C45.0575 58.3781 43.5146 55.51 41.9563 52.6592C41.9563 52.6592 41.9684 52.5872 41.9822 52.505C42.3239 52.393 42.6929 52.2668 43.0584 52.1612C43.5275 51.9766 44.0848 51.9669 44.623 52.1341C45.1612 52.3013 45.6424 52.6335 45.9741 53.0669C47.5092 54.7243 48.877 56.4912 50.0566 58.3411C51.7479 60.9743 53.6175 63.5302 55.6528 65.9916L62.0578 73.5595C62.1867 73.7341 62.3058 73.9135 62.4147 74.0968C60.1775 73.6283 57.9451 73.8105 56.0555 74.6158V74.6158ZM35.8904 97.2969C35.8898 97.2576 35.8962 97.2194 35.9094 97.1838C36.012 97.1269 36.1199 97.077 36.2325 97.0345C37.817 96.4082 39.2257 95.5232 40.3978 94.4177C40.8797 93.9888 41.4141 93.617 41.9418 93.2111C42.3843 92.8833 42.9697 92.7287 43.5923 92.7752C43.9441 92.7806 44.3026 92.8922 44.6109 93.0923C44.9193 93.2924 45.1599 93.5696 45.2947 93.8801C45.7315 94.8145 46.4572 95.6517 47.3756 96.2806C50.4018 98.5988 53.7037 100.583 57.1909 102.178C59.7517 103.293 62.1947 104.675 64.4614 106.292C64.6496 106.429 64.8105 106.58 64.9851 106.724C64.8914 106.758 64.7803 106.755 64.676 106.716C63.4878 106.395 62.4323 106.024 61.3036 105.719C60.6383 105.539 59.942 105.469 59.2784 105.279C58.3279 105.023 57.3981 104.643 56.458 104.324C54.1766 103.58 51.8372 103.129 49.5161 102.987C47.1465 102.857 44.7586 102.153 42.6051 100.949C40.378 99.7883 38.163 98.5558 35.8904 97.2969ZM35.3499 97.409C36.3201 97.9183 37.2616 98.3768 38.1706 98.8804C39.6818 99.7185 41.1741 100.595 42.7108 101.429C44.0963 102.223 45.608 102.77 47.1482 103.036C48.6763 103.255 50.2165 103.402 51.7446 103.621C52.8465 103.79 53.945 103.979 55.0314 104.24C56.1178 104.501 56.9678 104.838 57.9352 105.142C58.0659 105.178 58.188 105.265 58.3152 105.32C58.1991 105.383 58.061 105.412 57.9158 105.406C56.3253 105.378 54.7757 105.561 53.3162 105.949L50.8312 106.546C50.0085 106.76 49.1162 106.805 48.2134 106.678L45.4474 106.286C41.8071 105.776 38.1107 105.229 34.4449 104.723C32.6877 104.427 30.9323 104.363 29.2358 104.531C29.102 104.53 28.9669 104.518 28.8317 104.497C28.8294 104.411 28.8434 104.328 28.8731 104.251C29.4139 103.397 29.9327 102.526 30.543 101.702C31.2412 100.579 32.1246 99.5735 33.1688 98.7123C33.8545 98.2524 34.552 97.8709 35.3618 97.4122L35.3499 97.409ZM28.1849 103.097C27.6088 104.458 27.0873 105.714 26.5556 106.958L26.0592 107.103C24.4646 107.576 22.8616 108.025 21.2856 108.534C19.8283 109.052 18.296 109.434 16.7099 109.675C16.2392 109.741 15.7432 109.736 15.2403 109.773C13.2637 107.144 12.0426 104.191 11.707 101.228C12.3248 101.394 12.9124 101.446 13.3673 101.547C15.1471 102.012 16.9439 102.346 18.7389 102.546C21.4 102.749 24.0562 102.907 26.7141 103.055L28.1849 103.097ZM66.1405 73.802C65.6531 73.1542 65.113 72.5246 64.6934 71.9167C62.1377 68.5708 59.6023 65.2519 57.0501 61.8855C54.0278 57.9762 51.3896 53.8721 49.1717 49.6297C49.0585 49.4163 48.9691 49.2094 48.8863 49.0365C49.3418 48.3209 49.76 48.1973 50.663 48.4411C51.1108 48.5994 51.5321 48.8339 51.9011 49.1303C52.8687 49.9154 53.6955 50.8308 54.3413 51.8321C56.0125 54.3801 57.6854 56.9177 59.2683 59.474C60.2544 60.9983 61.096 62.5695 62.0549 64.1079C63.472 66.3937 64.9436 68.6512 66.3607 70.9369C66.8697 71.7518 67.3209 72.6155 67.7738 73.4689L66.1405 73.802ZM55.763 74.7304L54.4125 75.3763C54.2127 75.1611 54.0213 74.9696 53.8554 74.7743C51.1984 71.7236 48.2328 68.8831 45.0069 66.2992C43.5951 65.1653 42.2412 63.9826 40.8855 62.8101C39.364 61.4976 38.0264 60.025 36.9126 58.4364C36.7083 58.1597 36.5804 57.851 36.5414 57.5405C36.4705 56.4442 36.7447 55.4008 37.3327 54.5286C37.5685 54.1555 37.9456 53.8803 38.4084 53.744C44.1354 60.7632 50.0616 67.632 55.763 74.7304ZM32.8012 72.3464L32.8219 72.2229C33.036 72.2363 33.2512 72.2657 33.4655 72.3107C34.2853 72.5321 35.117 72.7567 35.9368 72.9781C37.0602 73.4104 38.2175 73.723 39.3824 73.9086L42.2384 74.282C43.4663 74.389 44.6895 74.8127 45.7596 75.5017C46.9836 76.3484 48.2008 77.2362 49.4248 78.0828C49.5531 78.1945 49.67 78.3162 49.7738 78.4458C47.7671 79.9661 45.9677 81.688 44.4023 83.5861C43.8378 83.1756 43.2919 82.8024 42.8224 82.4176C42.0891 81.856 41.3842 81.2637 40.7108 80.6432C39.8266 79.77 39.0309 78.8133 38.1773 77.9054L33.0503 72.5642L32.8012 72.3464ZM33.8615 96.9533L33.3625 96.8185L24.2221 94.4469C22.9033 94.0908 21.5605 93.8034 20.2244 93.5501C19.4611 93.4131 18.7124 93.1414 18.0235 92.7515C17.7294 92.592 17.4661 92.384 17.2503 92.1407C17.0346 91.8973 16.8712 91.6239 16.7704 91.3379C16.3866 90.3455 16.3296 89.3188 16.607 88.3908C16.6588 88.0822 16.8413 87.8089 16.9661 87.5093C20.4804 88.7702 23.9178 89.6017 27.2414 91.0368C30.1696 92.3114 33.0688 93.6857 35.98 94.988C36.075 95.0136 36.158 95.1113 36.3157 95.2076L33.8615 96.9533ZM54.0401 75.5231L50.4924 77.7905C49.7397 77.2432 48.97 76.7235 48.2888 76.1203C47.9264 75.8228 47.6024 75.4895 47.325 75.1289C46.636 74.2762 46.0168 73.3778 45.2803 72.5123C44.4085 71.4168 43.4841 70.3392 42.5987 69.2507C41.1003 67.4295 39.7588 65.5206 38.5887 63.5445C37.7933 62.2586 37.1843 60.9074 36.7788 59.5292C36.725 59.3287 36.6842 59.1274 36.6565 58.9263C36.8681 59.0525 37.0492 59.2197 37.1834 59.4127C38.0915 60.5973 39.1299 61.7072 40.2794 62.7216C41.5791 63.8575 42.877 65.0037 44.2346 66.0907C47.6518 68.802 50.7974 71.7847 53.6204 74.9904L54.0401 75.5231ZM63.3183 74.115C61.9537 72.4778 60.6857 70.9311 59.3888 69.409C56.6441 66.2271 54.0338 62.9847 51.563 59.651C50.5072 58.2077 49.6004 56.6949 48.856 55.1354C48.0784 53.4201 47.9443 51.6082 48.476 50.0009C48.5088 49.8055 48.6349 49.646 48.7563 49.367L49.1517 50.1189C50.1694 51.8989 51.119 53.7144 52.2047 55.4591C54.0816 58.4248 56.12 61.3225 58.3111 64.1398L65.2165 73.1654C65.3688 73.3678 65.5058 73.5876 65.7173 73.8812L63.3183 74.115ZM73.3847 62.168C73.4281 62.427 73.4616 62.5973 73.4951 62.7676C74.1636 67.2795 75.3023 71.7918 76.8961 76.2442C77.6444 78.3709 78.3893 80.5181 79.0084 82.6744C80.4335 87.6502 81.0601 92.647 82.2676 97.6609C82.2644 97.7208 82.2546 97.7794 82.2383 97.8358C81.8452 96.848 81.5507 95.8653 81.2544 94.8929C79.719 89.9087 78.311 84.9052 76.3031 79.9977C75.778 78.5881 74.9194 77.2536 73.7915 76.0939C73.0221 75.3909 72.4555 74.5378 72.1557 73.6308C71.9199 72.8898 71.7233 72.1378 71.5503 71.3922C71.2619 69.8965 71.1748 68.4035 71.2908 66.9462C71.3414 65.2684 71.9383 63.7163 73.0101 62.4754C73.126 62.3646 73.2511 62.2619 73.3847 62.168ZM27.8081 119.102C27.0017 118.948 26.2953 118.865 25.6062 118.679C24.4522 118.394 23.307 118.053 22.1761 117.656C21.6368 117.485 21.1255 117.22 20.6742 116.878C20.2229 116.536 19.8415 116.124 19.5539 115.668C19.077 114.884 18.6665 114.074 18.2186 113.265C18.3082 113.189 18.4031 113.117 18.5028 113.051C19.5944 112.336 20.5691 111.495 21.4075 110.546C21.8982 109.99 22.4432 109.481 22.9255 108.902C23.3669 108.36 24.0122 107.984 24.7697 107.83C25.317 107.677 25.8728 107.548 26.5578 107.388C25.5411 111.107 25.976 115.219 27.7962 119.098L27.8081 119.102ZM46.5466 111.797L45.8108 111.889L31.7872 113.155C30.2132 113.245 28.7051 113.564 27.319 114.099L27.1408 114.051C26.8585 112.13 26.9136 110.229 27.304 108.418L46.5466 111.797ZM46.3308 87.7088L46.9786 88.0665C48.5475 88.931 50.1094 89.8366 51.7004 90.6426C53.6165 91.5967 55.4221 92.7568 57.0704 94.0926C59.2532 95.8863 61.3082 97.8498 63.3276 99.8036C63.4123 99.891 63.4816 99.9957 63.5646 100.093C63.3908 100.086 63.215 100.038 63.0537 99.9554C59.8123 98.0219 56.4153 96.3519 52.9115 94.9694C51.0859 94.229 49.2773 93.4611 47.4603 92.6693C46.7664 92.3637 46.0999 91.9687 45.4706 91.6482C45.1599 90.203 45.4678 88.7929 46.3308 87.7088V87.7088ZM61.9594 43.815C62.0493 43.8841 62.1322 43.9606 62.2068 44.0431C64.19 46.4983 65.865 49.1172 67.1945 51.8411C68.5404 54.699 69.8099 57.5685 71.1303 60.4302C71.2895 60.7745 71.3161 61.1394 71.2056 61.4612C70.9912 62.2205 70.8107 62.9996 70.6082 63.7621C70.584 63.9061 70.5598 64.0501 70.5374 64.1838C70.3627 64.0058 70.2352 63.7974 70.1671 63.5784C69.3845 61.3555 68.3001 59.1874 66.9405 57.1269C64.9303 54.1003 63.2131 50.9549 61.8111 47.7316C61.4001 46.7261 61.1949 45.6894 61.2063 44.676C61.1836 44.4589 61.2467 44.2536 61.3844 44.0961C61.5221 43.9387 61.7257 43.8392 61.9594 43.815V43.815ZM85.992 71.9269L85.8494 71.8884C85.742 71.4186 85.621 70.9558 85.5254 70.4892C85.046 68.1878 84.7926 65.8849 84.7681 63.6078C84.7137 61.1202 84.7443 58.6448 84.7766 56.1591C84.783 55.0857 84.8116 53.9537 84.835 52.8526C84.8437 52.1346 84.8881 51.4262 84.9071 50.7217C86.1201 49.922 87.5376 49.3731 89.0781 49.1064C87.392 56.5407 86.3604 64.1691 85.992 71.9269V71.9269ZM62.5846 43.7903C62.8944 43.8132 63.206 43.8721 63.5115 43.9653C64.383 44.2778 65.2292 44.6685 66.0358 45.1309C68.0068 46.4156 69.6842 48.0543 70.9333 49.9155C72.0615 51.6287 73.1371 53.3599 74.2347 55.1078C74.3432 55.2781 74.4425 55.4521 74.5322 55.629L72.6651 58.2428L62.5846 43.7903ZM26.0829 74.3382C26.5532 73.5834 27.2351 72.9683 28.0735 72.5426C29.2136 72.0683 30.5295 71.9102 31.8762 72.0858C32.0177 72.0988 32.1592 72.1404 32.2899 72.2073C32.4207 72.2743 32.5373 72.3649 32.631 72.4724C33.3018 73.1374 33.988 73.785 34.6214 74.4507C36.183 76.0981 37.7174 77.7597 39.2653 79.4142L39.6819 79.8922C39.4261 79.8174 39.1802 79.7036 38.9558 79.5564C38.148 79.0536 37.3049 78.6066 36.4354 78.2198C34.535 77.4809 32.5918 76.8486 30.6793 76.1816C29.5882 75.8009 28.4919 75.4511 27.4059 75.0395C26.9514 74.8327 26.5092 74.5982 26.0829 74.3382V74.3382ZM41.5859 52.7205L48.5039 65.2222L48.3933 65.2891C45.2208 61.4004 41.9479 57.592 38.7279 53.6905L41.5859 52.7205ZM22.8539 108.367L22.9232 108.471C22.3474 109.09 21.7597 109.705 21.1958 110.327C20.4349 111.171 19.5591 111.923 18.584 112.568C18.4019 112.691 18.1859 112.794 17.9682 112.907L15.5214 110.096C18.1208 109.906 20.5984 109.321 22.8539 108.367V108.367ZM71.6027 60.3535L71.4483 60.3118C70.0807 57.2868 68.5585 54.2953 67.4001 51.2085L72.4875 58.5604C72.1835 59.1879 71.888 59.764 71.6027 60.3535Z" fill="#D9B785"/>
</svg>
