<svg width="190" height="291" viewBox="0 0 190 291" fill="none" xmlns="http://www.w3.org/2000/svg">
<path d="M-82.5009 291C-81.8763 290.802 -81.7239 290.283 -81.4954 289.809C-79.7281 286.023 -77.9913 282.176 -76.1631 278.451C-71.6789 269.036 -66.5528 259.941 -60.8214 251.231C-57.9078 246.892 -54.7436 242.727 -51.3451 238.758C-43.8867 229.775 -36.9971 220.332 -30.7168 210.485C-26.5272 204.104 -22.3375 197.707 -18.0412 191.402C-11.9014 182.52 -4.95505 174.225 2.70898 166.625C17.0322 152.054 32.3005 138.447 48.4143 125.894C50.7778 123.947 53.4716 122.442 56.367 121.451C58.4564 120.69 60.7575 120.761 62.7962 121.65C63.5867 122.041 64.3325 122.517 65.0205 123.07C65.6286 123.577 66.2084 124.117 66.7573 124.688C70.7494 128.508 75.9277 130.841 81.4287 131.298C85.6819 131.708 89.9535 131.896 94.2262 131.863C99.7718 131.863 105.317 132 110.863 132.321C121.479 133.165 132.02 134.788 142.4 137.176C148.859 138.58 155.334 139.725 161.885 140.458C164.218 140.781 166.581 140.822 168.924 140.58C170.557 140.463 172.12 139.874 173.426 138.886C174.732 137.897 175.724 136.55 176.282 135.008C176.93 133.468 177.033 131.752 176.576 130.145C176.119 128.538 175.129 127.135 173.769 126.169C171.307 124.337 168.55 122.943 165.618 122.047C163.485 121.405 161.322 120.856 159.143 120.398C158.246 120.217 157.396 119.853 156.646 119.327C155.896 118.802 155.263 118.127 154.786 117.345C154.712 117.206 154.646 117.063 154.588 116.917L155.791 116.78C160.272 116.547 164.723 115.913 169.091 114.887C173.338 113.88 177.299 111.916 180.673 109.143C184.047 106.371 186.745 102.863 188.562 98.8875C189.427 97.1232 189.913 95.1967 189.989 93.2325C190.066 91.2682 189.73 89.3097 189.004 87.4835C188.531 86.1146 187.654 84.922 186.49 84.0638C185.789 83.5131 185.056 83.0034 184.296 82.5372C182.739 81.6523 181.57 80.214 181.021 78.5069C180.176 75.8509 179.052 73.2922 177.669 70.8737C176.922 69.6523 176.145 68.4463 175.292 67.286C174.258 65.9081 172.935 64.7743 171.416 63.9645C169.897 63.1547 168.22 62.6887 166.502 62.5993C165.146 62.4466 163.759 62.5993 162.251 62.5993C162.156 62.3752 162.075 62.1458 162.007 61.9123C161.256 59.4252 160.276 57.0131 159.082 54.7065C157.865 52.334 156.235 50.1987 154.268 48.4015C153.018 47.2718 151.693 46.2489 150.398 45.165L149.834 44.6918C149.883 44.5414 149.938 44.3936 150.002 44.249C151.183 42.0959 151.885 39.7125 152.061 37.262C152.238 34.8115 151.883 32.3518 151.023 30.0513C150.375 28.0369 149.329 26.1739 147.947 24.5738C146.565 22.9738 144.875 21.6694 142.979 20.7388C140.131 19.2786 137.025 18.3917 133.837 18.1282C132.664 18.0214 131.476 17.884 130.288 17.8076C129.204 17.7007 128.16 17.3399 127.241 16.7542C125.717 15.7925 124.057 14.8001 122.396 13.991C117.528 11.6323 112.085 10.7311 106.719 11.3957C106.414 11.3957 106.11 11.4415 105.805 11.5331L104.967 11.6705L104.342 11.1362C103.23 10.1439 102.118 9.15157 101.036 8.08292C100.763 7.79875 100.574 7.44493 100.488 7.06007C100.335 6.51048 100.29 5.93036 100.183 5.35023C100.016 4.25745 99.5642 3.22803 98.8743 2.36522C98.1844 1.50242 97.2803 0.836562 96.2525 0.434448C95.3838 0.0362521 94.416 -0.0922145 93.4738 0.0655949C92.5316 0.223404 91.6581 0.660262 90.9659 1.3199C89.5739 2.55838 88.5244 4.13589 87.9189 5.89982C86.9681 8.49605 86.304 11.1888 85.9383 13.93C85.1258 19.5683 84.3843 25.2067 83.714 30.8451C82.9675 37.2723 82.3428 43.73 81.0479 50.0808C80.2957 53.9539 79.2412 57.7619 77.8942 61.4695C77.1455 63.4752 76.2228 65.4113 75.1366 67.2555C73.0037 70.8889 70.947 74.5681 68.7988 78.2015C67.7171 80.0335 66.5288 81.8197 65.3405 83.6058C62.7003 87.4216 60.488 91.5174 58.7437 95.819C57.5853 98.6837 56.8513 101.703 56.565 104.78C56.4824 106.127 56.6477 107.478 57.0526 108.765C57.4579 109.963 57.4255 111.267 56.9612 112.444C56.4925 113.704 55.8844 114.907 55.1482 116.032C53.9255 117.746 52.5975 119.383 51.1718 120.932C48.8894 123.394 46.4022 125.656 43.7371 127.695C27.9324 140.269 12.9602 153.859 -1.08455 168.38C-9.59041 177.248 -17.2182 186.921 -23.861 197.264C-28.3604 204.144 -32.8904 211.004 -37.4507 217.843C-41.6483 224.251 -46.2271 230.399 -51.1623 236.255C-60.6143 247.573 -68.6518 260.005 -75.0966 273.276C-77.2296 277.505 -79.2711 281.779 -81.3126 286.054C-81.8915 287.29 -82.3486 288.603 -82.8361 289.886C-83.0494 290.267 -83.156 290.756 -82.5009 291ZM133.441 65.9579H133.35C130.577 68.431 127.85 70.9805 125.016 73.3926C117.399 79.8961 109.309 85.9111 101.082 91.7123C94.8835 96.0925 88.2822 99.8702 81.3678 102.994C75.6049 105.779 69.5634 107.944 63.3447 109.452C62.4766 109.764 61.5456 109.858 60.6328 109.727C60.9378 109.035 61.2838 108.362 61.6688 107.712C63.341 105.144 65.4501 102.891 67.9 101.055C71.9533 98.108 76.2151 95.4599 80.6517 93.1321C82.4647 92.2008 84.2625 91.239 86.0754 90.2925C94.9142 85.78 103.163 80.1909 110.634 73.6521C112.889 71.637 114.976 69.4386 117.125 67.3166C117.324 67.1066 117.507 66.8821 117.673 66.6449C117.472 66.6682 117.287 66.7663 117.155 66.9197C114.255 69.8322 111.204 72.5891 108.014 75.1788C101.172 80.7589 93.7685 85.6093 85.9231 89.6513C80.9119 92.1104 76.044 94.8525 71.3431 97.8647C71.2728 97.88 71.2001 97.88 71.1298 97.8647L71.0384 97.7578L71.4345 97.4067C73.864 95.2375 76.4068 93.1991 79.0521 91.3001C81.7639 89.4223 84.43 87.4682 87.1114 85.5599C92.9208 81.4346 98.1081 76.4937 102.514 70.8889C103.648 69.5864 104.854 68.348 106.125 67.1792C108.156 65.1437 110.188 63.1692 112.219 61.2558C119.057 55.0584 126.201 49.209 133.624 43.73C134.63 42.9819 135.666 42.2797 136.534 41.6538C137.677 41.9896 138.667 42.2949 139.581 42.5392C140.495 42.7835 141.501 42.9361 142.461 43.1041C144.369 43.3854 146.196 44.0668 147.823 45.104C149.484 46.2489 151.038 47.5313 152.622 48.7679C152.714 48.7679 152.759 48.9511 152.881 49.119C152.043 50.2182 151.282 51.3632 150.398 52.4013C148.539 54.5997 146.62 56.737 144.731 58.8895L144.152 59.5918L144.35 59.7444C147.721 56.6303 150.763 53.1772 153.43 49.4396C154.739 50.6798 155.899 52.0682 156.888 53.5768C147.683 64.3777 136.963 73.7831 125.062 81.4991C125.388 81.4292 125.697 81.2998 125.976 81.1174C127.987 79.8503 130.044 78.6595 132.07 77.2855C141.075 70.8135 149.269 63.2788 156.477 54.8439C156.66 54.6149 156.873 54.4165 157.162 54.0959C159.378 57.9449 160.837 62.1842 161.459 66.5838C161.245 66.7823 160.971 66.9807 160.743 67.225L157.406 70.5073C147.184 80.5218 135.952 89.4446 123.889 97.1319C116.19 102.102 108.068 106.383 99.6194 109.925C92.3801 113.081 84.733 115.198 76.9039 116.215C73.545 116.628 70.1448 116.566 66.803 116.032C65.3363 115.738 63.8985 115.314 62.5067 114.765C61.961 114.553 61.4785 114.204 61.1051 113.753C60.7317 113.301 60.48 112.761 60.3738 112.185C61.1965 112.398 61.8973 112.612 62.5372 112.719C65.6408 113.215 68.8032 113.215 71.9068 112.719C75.1884 112.21 78.4061 111.35 81.5049 110.154C89.1437 107.105 96.4326 103.241 103.245 98.628C103.535 98.4448 103.779 98.2158 104.053 98.0021C102.316 98.9333 100.64 99.9256 98.9643 100.903C93.421 104.24 87.5998 107.09 81.5658 109.421C78.2007 110.762 74.6781 111.665 71.0841 112.108C68.6819 112.299 66.2704 112.345 63.8627 112.246C62.6742 112.222 61.5129 111.885 60.4957 111.269V110.521C61.1711 110.471 61.8427 110.379 62.5067 110.246C64.8377 109.65 67.1992 109.147 69.4692 108.383C79.4207 105.046 88.8995 100.433 97.6693 94.6587C104.464 90.1551 110.97 85.2393 117.384 80.2167C122.384 76.3964 127.137 72.261 131.613 67.8356L133.441 65.9579ZM58.9722 108.887C58.7447 108.831 58.5414 108.702 58.3931 108.521C58.2447 108.339 58.1592 108.114 58.1495 107.879C57.9997 107.068 57.9182 106.246 57.9057 105.422C58.0778 102.673 58.6793 99.9684 59.6882 97.4067C61.4182 92.8242 63.7109 88.4754 66.5136 84.4608C68.1742 81.9571 69.8348 79.4686 71.465 76.965C74.4648 72.4916 76.9825 67.7119 78.9759 62.7061C79.3439 61.7709 79.7872 60.8672 80.3013 60.004C82.9522 55.4241 85.6946 50.9815 88.2693 46.4169C92.7748 38.6168 96.0678 30.1742 98.035 21.38C98.9072 17.7204 99.4577 13.9913 99.6804 10.2355C99.7125 9.81953 99.7736 9.40633 99.8632 8.9989C102.512 10.9102 104.833 13.2408 106.734 15.8993C104.406 24.0763 101.289 32.0065 97.4256 39.5775C101.654 32.3233 104.936 24.5554 107.191 16.4642C108.207 17.4794 108.92 18.7591 109.248 20.1586C109.895 22.9648 110.156 25.8462 110.025 28.7231C109.837 34.7011 108.339 40.5645 105.637 45.8978C104.042 48.9833 102.192 51.9298 100.107 54.7065C96.8483 59.1793 94.0606 63.9782 91.7886 69.0264C90.4327 72.0034 88.9549 74.9345 87.3247 77.7588C84.1051 83.4362 79.9182 88.5049 74.9538 92.7352C73.0748 94.2923 71.2263 95.8902 69.4082 97.5288C66.2274 100.296 63.3193 103.364 60.7242 106.689C60.5754 106.855 60.4122 107.009 60.2367 107.147C60.253 106.885 60.2886 106.625 60.3434 106.368C60.8766 104.689 61.3489 102.964 61.9735 101.315C63.8412 96.6573 66.2825 92.2519 69.2406 88.201C74.6745 80.4864 80.1693 72.8125 85.725 65.1793C90.648 58.5242 95.1707 51.5809 99.269 44.3864C101.056 41.2539 102.609 37.9933 103.916 34.6312C104.051 34.2463 104.162 33.8538 104.251 33.4557H104.083C103.657 34.3869 103.245 35.3335 102.804 36.2647C99.6042 43.1022 95.822 49.6503 91.4991 55.8362C87.4466 61.7291 83.2112 67.4998 79.0673 73.3163C75.2585 78.6748 71.3736 84.0028 67.6714 89.3918C63.5288 95.054 60.6313 101.532 59.1703 108.398C59.121 108.568 59.0546 108.731 58.9722 108.887ZM127.82 102.918V102.704L128.779 102.032C131.656 100.142 134.305 97.9241 136.671 95.422C137.005 95.0704 137.418 94.8035 137.875 94.6435C139.124 94.1549 140.404 93.7122 141.668 93.2847C146.123 91.8541 150.297 89.6644 154.009 86.8118C156.562 84.9572 158.691 82.5788 160.255 79.835C160.604 79.1234 161.216 78.5759 161.961 78.3084L169.091 75.7742L169.686 75.5452C169.315 75.4534 168.928 75.4534 168.558 75.5452C166.28 76.0918 164.053 76.8323 161.901 77.7588C161.748 77.7588 161.581 77.8504 161.322 77.9267C162.969 73.5227 163.4 68.7551 162.571 64.1259C162.841 64.0469 163.116 63.9857 163.394 63.9427C164.882 63.7797 166.387 63.8779 167.842 64.2328C168.795 64.4548 169.689 64.879 170.465 65.4768C171.24 66.0747 171.878 66.8322 172.337 67.6982C174.369 71.0635 175.222 75.0128 174.759 78.9191C174.561 80.522 174.515 82.1403 174.469 83.7585C174.398 85.0936 174.654 86.4259 175.214 87.6392C175.774 88.8526 176.622 89.9102 177.684 90.72C178.96 91.7695 180.166 92.9016 181.295 94.1091C181.957 94.7792 182.535 95.5277 183.016 96.338C184.025 97.9685 184.384 99.9197 184.022 101.803C182.406 102.805 180.709 103.668 178.949 104.383C173.317 106.767 167.478 108.622 161.504 109.925C157.816 110.746 154.065 111.257 150.291 111.452C150.053 111.474 149.813 111.448 149.585 111.374C149.357 111.301 149.146 111.182 148.966 111.024C147.185 109.433 145.202 108.083 143.07 107.009C142.9 106.902 142.738 106.785 142.582 106.658C146.787 105.376 150.962 104.17 155.075 102.842C159.239 101.55 163.277 99.8844 167.141 97.8647C167.038 97.8274 166.925 97.8274 166.821 97.8647C158.875 101.265 150.661 103.997 142.262 106.032C141.753 106.156 141.218 106.108 140.739 105.895C139.612 105.391 138.469 104.964 137.342 104.49L136.686 104.185C143.349 102.359 149.779 99.7721 155.852 96.4754C155.746 96.4754 155.7 96.3533 155.685 96.3686L154.938 96.6739C148.982 99.612 142.751 101.954 136.336 103.666C135.777 103.765 135.204 103.765 134.645 103.666C133.243 103.483 131.872 103.223 130.486 103.025C129.587 103.025 128.703 102.979 127.82 102.918ZM66.3765 122.001C68.1287 122.801 69.9557 123.424 71.8306 123.863C76.4957 124.808 81.2649 125.132 86.0145 124.825C88.0408 124.749 90.0823 124.535 92.1085 124.26C95.0337 123.863 97.9588 123.466 100.853 122.902C105.066 122.084 109.223 121.003 113.301 119.665C119.142 117.869 124.763 115.421 130.059 112.368L130.851 111.879C130.693 111.851 130.53 111.884 130.394 111.971C125.287 114.693 119.949 116.957 114.443 118.734C108.208 120.845 101.792 122.378 95.2774 123.314C92.7484 123.65 90.2041 123.97 87.6599 124.169C84.5866 124.398 81.5007 124.398 78.4274 124.169C75.6648 124.019 72.9266 123.569 70.2614 122.825C68.8192 122.423 67.4436 121.811 66.1784 121.009C65.8585 120.795 65.5538 120.581 65.6299 120.138C65.6542 119.953 65.7418 119.782 65.8779 119.653C66.014 119.525 66.1902 119.449 66.3765 119.436C67.0893 119.302 67.8152 119.251 68.5398 119.283C70.6728 119.451 72.7904 119.757 74.9081 119.909C79.0199 120.236 83.1554 120.087 87.2333 119.467C93.4219 118.536 99.4976 116.965 105.363 114.78C112.014 112.324 118.339 109.058 124.194 105.055C124.836 104.579 125.619 104.332 126.418 104.353L130.988 104.582C131.245 104.618 131.499 104.669 131.75 104.735V104.933C124.287 109.393 116.512 113.306 108.486 116.642C112.734 115.173 116.886 113.439 120.918 111.452C125.001 109.508 128.964 107.321 132.786 104.902C138.21 106.078 143.877 111.772 145.492 115.894C145.142 116.047 144.791 116.23 144.426 116.352C140.023 117.879 135.635 119.406 131.202 120.932C126.296 122.459 121.345 123.985 116.287 125.176C113.24 125.879 110.04 126.489 106.887 127.039C104.463 127.499 102.017 127.83 99.5585 128.031C96.1915 128.245 92.7941 128.245 89.4424 128.245C88.2541 128.245 87.0657 128.245 85.8774 128.245C83.3788 128.077 80.8955 127.955 78.4122 127.665C76.4496 127.426 74.5016 127.08 72.5771 126.627C70.0198 125.887 67.8168 124.244 66.3765 122.001ZM138.53 32.4634L138.667 32.616C138.968 32.37 139.248 32.0993 139.505 31.8069C141.318 29.4712 143.116 27.1201 144.929 24.7691L145.492 23.9905C148.341 26.5413 150.144 30.0612 150.55 33.8679C151.073 37.2916 150.48 40.7928 148.859 43.8521C147.808 43.3789 146.879 42.9056 145.919 42.5392C144.959 42.1728 143.969 41.9438 142.872 41.6232C143.992 40.5973 144.926 39.3832 145.629 38.0356L142.095 41.5927L138.652 40.8294C138.316 40.7669 137.997 40.6339 137.716 40.4392C137.435 40.2445 137.198 39.9925 137.022 39.6996C136.184 38.3867 135.331 37.0738 134.416 35.822C132.183 32.8067 128.936 30.7028 125.275 29.8986C124.621 29.748 123.951 29.6813 123.28 29.7002C120.888 29.788 118.574 30.5732 116.622 31.9596L115.738 32.5397C115.388 31.0131 115.053 29.6086 114.778 28.204C114.743 27.8724 114.806 27.5375 114.961 27.2423C115.977 24.9523 117.053 22.6623 118.191 20.3724C118.27 20.2047 118.336 20.0312 118.389 19.8533C116.787 22.0832 115.457 24.4972 114.428 27.0438C112.508 21.8706 109.72 17.0638 106.186 12.8308C106.573 12.7384 106.964 12.6671 107.359 12.617C109.819 12.385 112.299 12.4825 114.733 12.9071C118.859 13.6731 122.778 15.3012 126.235 17.6855C127.584 18.6169 129.169 19.1462 130.806 19.2121L132.725 19.3648C135.661 19.5232 138.545 20.2056 141.242 21.38L142.232 21.8838L138.576 27.4865C140.195 25.8648 141.603 24.0437 142.765 22.0669L145.127 23.5936L138.53 32.4634ZM118.282 131.497C118.412 131.451 118.544 131.415 118.679 131.39C122.03 131.39 125.397 131.176 128.749 131.191C131.537 131.191 134.34 131.359 137.143 131.497C138.911 131.588 140.663 131.726 142.415 131.893C144.776 132.107 147.138 132.367 149.499 132.611C152.104 132.886 154.71 133.054 157.3 133.451C160.849 133.985 164.369 134.672 167.964 135.328C169.031 135.527 170.067 135.802 171.118 136.046V135.878C170.959 135.767 170.791 135.67 170.615 135.588L169.091 135.115C164.647 134.005 160.124 133.239 155.563 132.825C150.992 132.29 146.315 131.863 141.699 131.298C137.661 130.855 133.624 130.672 129.511 130.611C125.793 130.611 122.076 130.611 118.359 130.703C115.571 130.703 112.798 130.794 110.025 130.84H109.294C104.114 130.733 98.9186 130.55 93.7387 130.535C89.5259 130.561 85.3148 130.357 81.124 129.924C78.7523 129.705 76.4317 129.102 74.253 128.138C73.9331 128.001 73.6436 127.833 73.3389 127.665C74.6948 127.756 75.9746 128.016 77.2696 128.138C80.1033 128.397 82.9675 128.611 85.8164 128.779C87.7056 128.886 89.5947 128.871 91.4839 128.871C93.373 128.871 95.3841 128.871 97.3342 128.871C99.01 128.871 100.671 128.626 102.347 128.535L117.978 127.649C125.87 127.207 133.761 126.688 141.653 126.291C148.783 125.924 155.913 125.634 162.982 125.375C164.448 125.326 165.915 125.393 167.37 125.573C169.704 125.962 171.874 127.023 173.616 128.626C174.336 129.182 174.877 129.936 175.175 130.796C175.473 131.655 175.514 132.583 175.292 133.466C175.019 134.937 174.293 136.286 173.217 137.323C172.14 138.361 170.767 139.035 169.29 139.252C167.082 139.573 164.839 139.573 162.632 139.252C156.561 138.609 150.529 137.636 144.563 136.336C137.768 134.901 130.943 133.542 124.072 132.458L118.282 131.497ZM64.9596 116.429V116.276C65.1319 116.261 65.3052 116.261 65.4776 116.276C67.4072 116.718 69.379 116.948 71.3583 116.963C74.5294 117.002 77.697 116.741 80.8193 116.184C84.2498 115.587 87.6389 114.771 90.9659 113.742C99.1442 111.074 107.039 107.602 114.535 103.376C131.607 93.9355 147.172 81.9868 160.712 67.9272L161.489 67.1639C161.551 67.3575 161.592 67.5571 161.611 67.7593C161.755 71.2251 161.12 74.679 159.752 77.8657C158.236 80.9184 156.029 83.5741 153.308 85.621C149.595 88.473 145.414 90.6532 140.952 92.0634C139.718 92.4756 138.454 92.8878 137.25 93.4069C136.604 93.6722 136.022 94.073 135.544 94.5824C134.334 95.9146 133.003 97.131 131.567 98.2158C127.142 101.633 122.49 104.745 117.643 107.528C110.083 111.857 101.917 115.022 93.4188 116.917C89.1163 117.95 84.7224 118.553 80.3013 118.719C78.5188 118.719 76.7058 118.627 74.9081 118.596C71.9481 118.503 69.0197 117.958 66.2241 116.978C65.8288 116.815 65.4423 116.632 65.0662 116.429H64.9596ZM83.9578 41.44C83.9578 41.211 83.9578 40.982 83.9578 40.753C84.4758 36.1731 84.9633 31.5932 85.4813 27.0133C85.9993 22.4333 86.7153 17.6855 87.4314 13.0292C87.8168 10.5664 88.4918 8.15786 89.4424 5.85402C89.9642 4.51347 90.788 3.31181 91.8495 2.34275C92.3536 1.84056 92.9993 1.50542 93.6995 1.38257C94.3997 1.25972 95.1206 1.35508 95.765 1.65576C96.5196 1.9528 97.1911 2.42885 97.7218 3.04308C98.2525 3.6573 98.6266 4.39137 98.812 5.1823C99.0745 6.25211 99.2176 7.34784 99.2386 8.44931C99.2189 10.1857 99.0917 11.9193 98.8577 13.6399C97.877 20.908 95.9671 28.0195 93.175 34.7991C89.7079 42.6333 85.6327 50.1828 80.9869 57.3782C80.8955 57.5003 80.7736 57.5919 80.5299 57.8514L80.8193 56.7522C81.5354 53.5616 82.2362 50.3709 82.9675 47.1802C83.1424 46.1428 83.4023 45.1216 83.7445 44.1269C87.8791 33.7298 90.7586 22.8747 92.3218 11.7927C92.4509 11.349 92.4509 10.8776 92.3218 10.4339C90.6703 21.044 87.8656 31.4412 83.9578 41.44ZM110.893 23.4409H111.061C111.198 23.731 111.335 24.021 111.457 24.3264C113.203 28.5464 114.044 33.0872 113.925 37.654C113.83 43.9632 112.483 50.1905 109.964 55.9736C105.488 66.1857 98.5516 75.1244 89.7776 81.9876C87.3704 83.8806 84.8719 85.6363 82.419 87.453C82.2057 87.6056 81.9772 87.7125 81.7487 87.8499C81.8621 87.4955 82.055 87.1717 82.3124 86.9034C84.9601 83.7797 87.2828 80.3933 89.2443 76.797C90.5546 74.3086 91.8343 71.8049 92.9922 69.2402C95.0666 64.676 97.5877 60.3293 100.518 56.2637C101.691 54.6455 102.849 53.0425 103.931 51.3785C109.321 43.4861 111.794 33.9568 110.924 24.4332C110.909 24.0821 110.893 23.7615 110.893 23.4409ZM136.275 41.2263C125.586 48.6297 115.527 56.9069 106.201 65.9731C106.582 65.1488 107.039 64.4465 107.481 63.6374C110.048 59.4296 112.027 54.8888 113.361 50.1419C113.662 48.9006 114.288 47.7622 115.174 46.8443C118.548 43.2648 122.108 39.8658 125.839 36.6616L126.799 35.7915L126.646 35.6388C122.252 39.0288 118.121 42.7493 114.291 46.768C115.027 42.7824 115.318 38.7271 115.159 34.677C116.561 33.3315 118.227 32.2919 120.05 31.6237C121.448 31.0293 122.986 30.8492 124.483 31.1047C126.489 31.5256 128.393 32.3345 130.09 33.4862C132.665 35.6082 134.772 38.2441 136.275 41.2263ZM156.081 125.069H155.456L132.405 126.245L126.555 126.535C120.979 126.825 115.403 127.146 109.796 127.451H108.806C121.528 125.008 133.685 120.81 145.827 116.352C146.848 118.41 148.237 120.263 149.926 121.818C151.766 123.253 153.859 124.33 156.096 124.993L156.081 125.069ZM185.027 102.17C184.985 102.067 184.955 101.959 184.936 101.849C185.14 100.591 185.086 99.3046 184.777 98.0683C184.467 96.832 183.91 95.6718 183.138 94.6587C182.477 93.8171 181.764 93.0166 181.005 92.2619C179.985 91.2543 178.918 90.3078 177.852 89.346C176.732 88.4196 175.998 87.1074 175.795 85.6668C175.648 84.5486 175.592 83.4203 175.627 82.2929C175.627 80.4915 175.932 78.7053 175.947 76.9039C175.943 75.3728 175.846 73.8434 175.658 72.324C175.502 71.4334 175.298 70.5518 175.048 69.6829C175.277 69.8376 175.47 70.0409 175.612 70.2783C176.48 71.9118 177.41 73.53 178.217 75.2093C178.842 76.5375 179.329 77.8657 179.817 79.3007C180.476 81.1292 181.754 82.6686 183.428 83.6516C184.189 84.1096 184.951 84.6134 185.622 85.1783C186.589 85.8644 187.327 86.8276 187.739 87.9415C188.995 91.0027 188.995 94.437 187.739 97.4983C187.05 98.9122 186.276 100.284 185.423 101.605C185.324 101.776 185.212 101.939 185.088 102.093L185.027 102.17ZM150.246 112.185C162.003 111.257 173.451 107.954 183.9 102.475C183.864 103.449 183.487 104.379 182.834 105.101C179.135 109.351 174.202 112.335 168.726 113.635C163.776 114.715 158.756 115.439 153.704 115.803L150.383 112.398C150.342 112.306 150.316 112.208 150.307 112.108L150.246 112.185ZM165.481 123.573V123.726L161.398 123.375C159.347 123.284 157.308 123.013 155.304 122.566C152.55 121.937 150.128 120.304 148.509 117.986C148.052 117.299 147.549 116.642 147.153 115.925C145.589 113.007 143.526 110.388 141.059 108.185C140.942 108.059 140.84 107.921 140.754 107.773C141.135 107.91 141.364 107.971 141.577 108.063C144.252 109.299 146.711 110.959 148.859 112.978C150.78 114.727 152.525 116.66 154.07 118.749C155.214 120.366 156.95 121.463 158.899 121.802C160.773 122.199 162.632 122.703 164.49 123.176C164.856 123.253 165.191 123.375 165.526 123.497L165.481 123.573Z" fill="#D9B785"/>
</svg>
