<svg width="215" height="728" viewBox="0 0 215 728" fill="none" xmlns="http://www.w3.org/2000/svg">
<path d="M4.32431 108.444C3.75035 107.583 3.15247 106.769 2.60242 106.052C1.04476 103.746 0.151212 101.057 0.0195693 98.2771C-0.161522 93.8876 0.917295 89.538 3.12855 85.7422C4.44754 83.5734 6.43736 81.8938 8.79647 80.9579L10.2314 80.3359C9.9444 79.7858 9.70525 79.3312 9.44218 78.9007C7.89888 76.3056 6.78445 73.4784 6.14187 70.5281C5.59934 68.0507 5.68962 65.4765 6.40437 63.0431C7.11913 60.6098 8.43531 58.3959 10.2314 56.6058C14.0483 52.533 19.3147 50.1268 24.8914 49.9077C28.5348 49.7189 32.1861 50.0736 35.725 50.9603L37.8296 51.3909C37.8296 50.6493 37.8296 50.0513 37.8296 49.4532C37.7955 44.6528 38.605 39.8836 40.2211 35.3634C42.4553 29.1933 46.529 23.8578 51.8917 20.0775C55.7731 17.2727 60.4029 15.6902 65.1886 15.5325C67.6838 15.3738 70.1854 15.7153 72.5468 16.5369C74.9082 17.3585 77.0818 18.6436 78.9399 20.3168C80.6618 21.8956 82.2163 23.6658 83.8664 25.3403C84.2564 25.8039 84.7472 26.1721 85.3014 26.4168C85.3014 25.8426 85.0861 25.2446 84.9904 24.6705C84.674 23.0134 84.7798 21.3034 85.2981 19.698C85.8163 18.0926 86.7304 16.6436 87.9559 15.4846C89.4534 14.0974 91.3741 13.2548 93.4086 13.0925C96.538 12.6136 99.727 12.6864 102.831 13.3077L104.29 13.4991C104.42 12.9647 104.508 12.4208 104.553 11.8725C104.511 10.2081 104.935 8.56506 105.775 7.12819C106.616 5.69132 107.841 4.51762 109.312 3.73912C111.653 2.01173 114.349 0.826896 117.204 0.270498C120.768 -0.345214 124.434 0.0955034 127.751 1.53834L128.803 1.99285C131.064 3.18991 133.689 3.5053 136.169 2.87795C139.717 2.13201 143.406 2.43115 146.787 3.73912C149.743 4.71818 152.192 6.82438 153.603 9.59991C153.746 9.88034 153.906 10.1519 154.082 10.4132L155.206 10.174C159.006 9.0048 163.114 9.38305 166.637 11.2266C169.482 12.6448 172.075 14.5196 174.314 16.7764C178.498 20.9183 182.888 24.8465 187.467 28.5458L188.567 29.4787C192.508 32.6899 195.074 37.2847 195.742 42.3246C196.412 46.5348 196.914 50.7689 197.488 55.003C199.186 67.9207 200.908 80.8144 202.558 93.732C203.586 101.674 204.782 109.592 205.332 117.654C205.786 124.448 205.786 131.265 205.332 138.059C204.763 145.562 202.428 152.825 198.516 159.253C195.419 164.669 191.677 169.689 187.372 174.204C185.346 176.237 183.215 178.162 180.986 179.969C178.8 181.77 176.947 183.939 175.51 186.38C174.64 187.882 174.136 189.569 174.041 191.302C173.945 193.035 174.26 194.767 174.96 196.355C176.55 200.066 178.757 203.479 181.488 206.45C185.961 211.522 190.6 216.426 195.072 221.497C219.614 249.463 241.999 279.251 262.035 310.605C284.377 345.151 303.922 381.428 320.484 419.089C331.797 444.63 341.221 470.966 348.68 497.887C352.301 511.177 355.184 524.657 357.313 538.266C358.079 543.314 358.581 548.433 359.394 553.48C360.27 560.328 360.741 567.222 360.805 574.125C361.236 583.693 361.57 593.262 362.025 602.687C362.415 607.704 363.215 612.68 364.416 617.566C367.19 630.436 369.988 643.306 372.691 656.2C376.245 673.341 377.627 690.862 376.804 708.349C376.565 713.994 376.302 719.664 376.039 725.309C375.984 725.881 375.888 726.449 375.752 727.007C374.461 727.294 374.054 727.127 373.887 726.194C373.827 725.526 373.827 724.853 373.887 724.185C374.15 715.142 374.508 706.1 374.676 697.034C374.85 685.675 373.832 674.33 371.639 663.185C369.725 653.114 367.477 643.115 365.373 633.068C363.842 625.724 362.192 618.38 360.829 610.988C360.124 606.979 359.693 602.927 359.538 598.86C359.011 586.899 358.748 574.938 358.246 563.097C358.103 559.365 357.576 555.657 357.074 551.949C356.357 546.448 355.4 540.969 354.683 535.467C353.574 527.695 352.041 519.988 350.091 512.383C343.054 483.563 333.622 455.381 321.895 428.131C301.313 379.78 275.872 333.645 245.964 290.439C227.456 263.352 207.061 237.605 184.932 213.388C184.047 212.431 183.115 211.522 182.302 210.541C179.396 207.342 176.093 204.528 172.472 202.168C172.402 202.107 172.321 202.058 172.233 202.025C167.33 199.151 161.658 197.864 155.995 198.341C153.645 198.61 151.455 199.664 149.777 201.331C146.333 204.744 142.429 207.659 138.178 209.991C134.181 212.194 129.747 213.485 125.192 213.77C114.031 214.665 102.86 212.163 93.1456 206.594C87.0232 203.03 80.9009 199.417 74.9221 195.662C62.1992 187.528 49.3089 179.443 36.012 172.266C29.5923 168.527 23.4393 164.346 17.5973 159.756C15.4449 158.153 13.3164 156.502 11.2358 154.828C7.77292 151.925 4.89897 148.384 2.76982 144.398C1.56322 142.152 0.863017 139.669 0.718411 137.123C0.573805 134.577 0.988307 132.031 1.93279 129.662C2.37873 128.293 3.20888 127.08 4.32431 126.17C4.74238 125.887 5.04485 125.463 5.17655 124.975C5.30825 124.488 5.26042 123.969 5.04177 123.514C3.81375 119.563 3.44678 115.395 3.96559 111.29C4.08516 110.334 4.22865 109.401 4.32431 108.444ZM12.2163 98.5403C9.68679 100.892 7.87152 103.91 6.97891 107.248C5.92837 111.498 5.75746 115.918 6.47669 120.237C6.72114 122.251 7.6801 124.11 9.17911 125.476C15.4688 131.074 21.5433 136.958 28.0243 142.221C39.982 152.101 52.0831 161.693 64.1364 171.357C73.154 178.686 82.7517 185.27 92.8347 191.045C102.361 196.678 112.634 200.939 123.351 203.699C127.728 204.919 132.282 205.38 136.815 205.063C139.77 204.733 142.6 203.69 145.062 202.023C147.524 200.356 149.544 198.116 150.949 195.494C150.654 195.476 150.359 195.476 150.064 195.494C145.205 196.609 140.195 196.916 135.236 196.403C130.042 195.924 124.939 194.725 120.074 192.839C110.865 189.382 102.08 184.887 93.8869 179.443C84.4955 173.123 75.5096 166.22 66.9823 158.775C58.3489 151.383 49.6676 144.063 41.2734 136.432C35.0315 130.763 29.1962 124.663 23.1934 118.754C23.1934 118.754 23.1934 118.539 23.0739 118.419C24.5212 119.533 25.8952 120.74 27.1873 122.031C34.9597 129.447 42.5648 137.006 50.8156 143.896C60.1186 151.646 69.302 159.564 78.7486 167.171C88.0574 174.793 98.1132 181.453 108.762 187.05C117.291 191.852 126.719 194.841 136.456 195.829C141.242 196.195 146.056 195.734 150.686 194.466C151.749 194.186 152.692 193.568 153.374 192.705C154.056 191.842 154.438 190.781 154.464 189.681C154.414 189.599 154.349 189.526 154.273 189.466C154.016 189.34 153.753 189.228 153.484 189.131C144.651 185.81 136.207 181.535 128.301 176.381C118.747 170.077 109.58 163.207 100.846 155.808C94.3174 150.402 87.932 144.805 81.3792 139.446C72.9747 132.769 64.9129 125.671 57.2248 118.18C55.0007 115.955 52.681 113.826 50.3851 111.673C50.708 111.714 51.0096 111.856 51.246 112.08C53.1832 113.778 55.1442 115.477 57.0574 117.199C60.8839 120.692 64.5668 124.376 68.5128 127.653C79.8487 137.221 91.2323 146.686 102.664 156.048C110.375 162.527 118.422 168.595 126.77 174.228C134.99 179.776 143.816 184.366 153.077 187.911L154.727 188.485C154.89 187.703 154.833 186.892 154.562 186.14C154.292 185.389 153.82 184.727 153.197 184.227C152.264 183.462 151.236 182.84 150.375 182.026C147.003 178.821 143.631 175.616 140.378 172.29C137.771 169.635 135.308 166.812 132.773 164.061C127.956 158.855 122.61 154.165 116.822 150.067C111.244 146.222 105.116 143.246 98.6461 141.24C95.5987 140.224 92.7911 138.596 90.3953 136.456C86.4962 133.054 82.8065 129.419 79.3465 125.572L71.9806 117.319C65.7854 110.437 58.6809 104.434 50.8634 99.4732C47.349 97.2169 43.5749 95.3937 39.6232 94.043C33.84 92.0184 27.5808 91.785 21.6629 93.3732C21.1367 93.5167 20.6345 93.732 20.3236 93.8277C22.3325 95.9806 24.2696 98.1097 26.2546 100.167C28.3915 102.128 30.3521 104.274 32.1138 106.578C27.6178 102.75 23.2413 98.6359 19.1518 94.4736C16.8229 95.0351 14.7256 96.3055 13.149 98.1097L13.6991 98.7555C20.0801 105.39 26.8523 111.637 33.9792 117.462C35.462 118.658 36.9208 119.854 38.3557 121.146C38.5428 121.361 38.696 121.603 38.8101 121.864C29.2179 114.961 20.3123 107.15 12.2163 98.5403ZM175.94 179.276L176.538 178.965C182.508 175.139 187.008 169.406 189.309 162.698C191.714 155.222 193.043 147.441 193.255 139.59C193.55 132.392 193.157 125.183 192.083 118.06C191.429 113.18 190.696 108.316 189.883 103.468C188.615 96.0763 187.276 88.7085 185.937 81.3167C184.98 75.9583 183.952 70.6238 182.971 65.2654C181.752 58.5913 180.58 51.9171 179.336 45.243C177.949 37.6838 176.554 30.1246 175.151 22.5654C175.103 21.6233 174.815 20.7092 174.314 19.9101C171.623 16.8459 168.303 14.3982 164.58 12.7336C162.592 11.9466 160.444 11.649 158.316 11.8661C156.189 12.0831 154.145 12.8084 152.356 13.9808C150.567 15.1532 149.086 16.7385 148.038 18.6029C146.99 20.4674 146.405 22.5566 146.333 24.6944C146.386 28.7327 146.933 32.7493 147.959 36.6552C149.394 41.8222 150.973 46.9175 152.431 52.0846C157.215 68.8297 160.85 85.9097 164.748 102.918C166.805 111.745 168.55 120.668 170.32 129.567C171.372 134.853 172.305 140.188 173.046 145.522C173.668 150.019 173.955 154.565 174.338 159.086C174.958 166.252 174.245 173.47 172.233 180.376L171.946 181.572L172.209 181.835C172.723 181.385 173.203 180.897 173.644 180.376C175.65 177.624 177.134 174.526 178.021 171.238C180.032 163.992 181.078 156.511 181.13 148.991C181.381 141.239 181.117 133.48 180.341 125.763C179.934 121.625 179.623 117.462 179.097 113.348C178.475 108.42 177.734 103.508 176.873 98.612C175.749 92.225 174.649 85.814 173.214 79.4748C170.966 69.5234 168.431 59.6199 166.039 49.6924C165.848 48.8313 165.633 47.9701 165.417 47.1089C165.696 47.2847 165.901 47.5573 165.991 47.8744C166.996 51.3191 168.048 54.7399 168.981 58.1846C171.827 68.5665 174.194 79.0442 176.155 89.5936C177.112 94.4975 177.949 99.4493 178.738 104.401C179.312 107.941 179.767 111.577 180.197 115.046C180.628 118.515 180.867 121.601 181.154 124.902C181.441 128.203 181.847 132.078 181.919 135.762C182.296 143.147 182.144 150.55 181.465 157.914C181.082 160.88 180.699 163.87 180.149 166.836C179.325 171.157 177.908 175.342 175.94 179.276ZM44.1432 32.3015L45.4346 33.6889C53.231 41.894 61.123 49.9795 68.5128 58.5434C78.7725 70.5042 88.6256 82.6563 97.6895 95.5261C104.864 105.717 112.039 115.836 119.357 125.978C128.698 138.909 138.817 151.259 149.657 162.961C149.905 163.24 150.177 163.496 150.47 163.726C150.182 162.883 149.788 162.079 149.299 161.334C143.057 151.024 136.863 140.666 131.314 129.949C125.575 118.874 120.863 107.367 116.248 95.8132C111.13 82.9195 106.155 69.954 101.038 57.0603C96.4112 44.5065 89.1541 33.0877 79.753 23.5701C76.3951 19.8935 71.7367 17.6709 66.767 17.3744C64.6071 17.2893 62.4502 17.6057 60.4056 18.3074C63.6969 22.0017 66.7407 25.9095 69.5173 30.005C68.9776 29.748 68.5033 29.3717 68.1302 28.9046L60.3099 19.8144C59.9755 19.4395 59.616 19.0878 59.2337 18.7619C57.8885 18.9887 56.6358 19.5945 55.6225 20.5081C61.904 27.6362 67.6967 35.1807 72.9611 43.0901C71.9691 42.5149 71.1446 41.6902 70.5696 40.6979C65.7865 34.3587 61.0035 28.163 55.6943 22.2305L54.6898 21.154C50.1899 23.7959 46.5325 27.6616 44.1432 32.3015ZM137.652 31.6556C140.043 41.6309 142.889 51.3909 144.539 61.414C144.238 60.9076 144.012 60.3595 143.87 59.7873C141.67 51.032 139.461 42.2608 137.245 33.4736C137.245 33.0909 136.982 32.7081 136.815 32.2297C135.422 33.0202 134.292 34.201 133.562 35.6266C132.323 38.8597 131.746 42.3088 131.864 45.7693C132.16 53.2532 133.838 60.6176 136.815 67.4901C137.771 69.7387 138.728 71.9873 139.661 74.2599C143.106 82.3102 144.684 91.0366 144.276 99.7842C144.061 104.066 143.511 108.252 143.511 112.463C143.212 117.386 143.212 122.323 143.511 127.246C144.071 137.021 146.67 146.571 151.14 155.282C154.826 161.88 158.024 168.74 160.706 175.807C161.158 176.775 161.678 177.71 162.261 178.606C162.432 178.22 162.568 177.82 162.667 177.41C162.882 174.754 163.169 172.075 163.241 169.396C163.376 165.049 163.176 160.699 162.643 156.383C161.927 150.843 160.897 145.348 159.558 139.925C158.004 133.418 156.354 126.959 154.775 120.476C154.632 119.926 154.56 119.376 154.44 118.826C155.732 122.629 156.832 126.433 157.788 130.26C161.012 140.715 163.104 151.486 164.03 162.387C164.222 166.19 164.03 170.018 164.03 173.845C164.03 175.855 163.696 177.84 163.528 179.874C164.211 181.045 165.292 181.931 166.575 182.37C167.857 182.809 169.254 182.772 170.511 182.266C170.511 181.931 170.822 181.524 170.942 181.141C172.426 176.788 173.279 172.245 173.477 167.65C173.753 162.237 173.561 156.81 172.903 151.431C172.353 147.029 171.731 142.628 170.966 138.25C169.746 131.337 168.574 124.423 167.044 117.558C165.107 108.396 163.026 99.2579 160.874 90.1438C158.482 79.403 155.804 68.6144 153.101 57.9693C151.642 52.1803 149.873 46.463 148.318 40.7219C147.059 36.3377 146.163 31.8572 145.64 27.3258L137.652 31.6556ZM43.6888 33.0909C42.5948 35.2984 41.791 37.6382 41.2973 40.052C39.7141 47.0913 39.7714 54.4005 41.4647 61.414C41.794 63.2486 42.3987 65.0229 43.2583 66.6767C45.0479 69.7922 47.037 72.7887 49.2132 75.6473C56.0931 84.5055 63.8139 92.6769 72.2675 100.047C83.7628 110.158 95.2979 120.245 106.873 130.308C119.23 140.958 130.81 152.478 141.526 164.779C146.309 170.233 151.379 175.233 156.354 180.424C156.736 180.83 157.191 181.141 157.788 181.668C158.103 181.136 158.344 180.565 158.506 179.969C158.824 178.456 158.595 176.88 157.86 175.52C156.678 173.496 155.384 171.54 153.986 169.659C151.594 166.717 149.059 163.918 146.596 161.071C141.407 155.043 136.026 149.11 131.051 142.986C121.055 130.595 111.704 117.725 102.855 104.568C89.5594 85.1606 74.9361 66.6969 59.0902 49.3097C54.3072 43.9513 49.2372 38.7364 44.3106 33.4497C44.1193 33.354 43.9758 33.3062 43.6888 33.0909ZM155.469 168.989H155.708C155.469 168.439 155.253 167.865 154.99 167.315C152.073 161.597 149.131 155.904 146.237 150.187C141.532 140.704 137.535 130.885 134.28 120.811C131.914 113.391 130.115 105.802 128.899 98.1097C127.847 91.8901 126.938 85.6226 125.551 79.4509C123.11 68.481 119.872 57.7037 115.865 47.2046C113.443 40.2994 110.584 33.5557 107.303 27.0148C107.303 27.0148 107.303 26.8473 107.303 26.7517C108.615 28.6462 109.767 30.6466 110.747 32.732C115.779 43.6801 119.922 55.0157 123.135 66.6289C123.303 67.3226 123.566 67.9924 123.781 68.6622C123.781 65.7916 123.494 62.9689 123.327 60.1701C123.087 56.3905 122.872 52.6109 122.848 48.8313C122.867 41.5251 121.326 34.2991 118.328 27.6368C117.097 24.5895 115.15 21.8835 112.652 19.7476C110.155 17.6116 107.18 16.1084 103.979 15.365C100.238 14.4593 96.3441 14.3859 92.5716 15.1497C91.7245 15.3643 90.9287 15.7457 90.2307 16.2714C89.5326 16.7971 88.9463 17.4567 88.506 18.2117C87.8227 19.2884 87.3848 20.5025 87.2236 21.7676C87.0624 23.0328 87.1818 24.3179 87.5733 25.5317C88.8489 30.2932 90.7721 34.857 93.289 39.0952C96.6567 44.6681 99.5602 50.5087 101.97 56.5579C106.466 67.9446 110.891 79.3791 115.387 90.7657C119.883 102.152 124.379 113.443 129.712 124.423C137.15 139.566 145.974 153.943 154.847 168.272C155.033 168.529 155.241 168.769 155.469 168.989ZM128.684 206.331V206.02L126.77 205.589L124.809 205.183C116.447 203.292 108.35 200.376 100.703 196.499C87.3547 189.771 74.8008 181.571 63.2754 172.051C54.5224 164.875 45.9369 157.698 36.9686 150.785C26.8936 143.004 17.3092 134.608 8.27033 125.643C8.16112 125.537 8.0307 125.456 7.88769 125.404C7.1224 126.313 6.40494 127.103 5.73531 127.964C5.07458 128.669 4.53336 129.477 4.13299 130.356C3.26167 132.365 2.84824 134.543 2.9227 136.732C2.99715 138.92 3.55762 141.065 4.56347 143.01C6.60106 147.043 9.48957 150.585 13.0295 153.392C17.382 156.717 21.7824 160.019 26.3263 163.32C30.3071 166.234 34.4776 168.879 38.8101 171.238C50.7677 177.84 62.7254 184.993 74.1808 192.456C80.4466 196.499 86.8798 200.303 93.313 204.058C102.137 209.205 112.205 211.829 122.418 211.641C128.677 211.626 134.796 209.78 140.019 206.331L141.287 205.374C139.398 205.733 137.867 205.996 136.337 206.331C133.154 207 129.9 207.265 126.651 207.12C123.268 206.883 119.91 206.379 116.606 205.613C107.465 203.829 98.6134 200.794 90.2996 196.595C80.6153 191.767 71.2314 186.359 62.1992 180.4C47.013 170.257 32.3291 159.421 17.8125 148.345C16.9037 147.675 16.0428 146.934 15.1818 146.24C15.6093 146.27 16.0177 146.428 16.3537 146.694C25.4893 153.273 34.6489 159.779 43.7606 166.43C55.4709 175.172 67.7242 183.162 80.4466 190.351C86.4963 193.849 92.7674 196.95 99.22 199.633C106.863 202.544 114.791 204.644 122.872 205.9C124.762 206.187 126.77 206.187 128.684 206.331ZM175.892 21.5607C175.892 22.1826 175.892 22.6132 176.036 23.0199C177.112 28.6893 178.212 34.3826 179.288 40.052C180.58 46.7979 181.895 53.5677 183.139 60.3136C184.478 67.4901 185.769 74.7861 187.085 82.0344C188.185 87.943 189.476 93.8516 190.313 99.8081C191.413 106.674 192.322 113.611 193.303 120.5C194.019 125.427 194.354 130.401 194.307 135.379C194.307 139.303 193.853 143.226 193.542 147.125C193.218 151.164 192.538 155.166 191.509 159.086C190.081 165.025 187.186 170.511 183.091 175.041L182.469 175.783C183.632 174.938 184.713 173.984 185.698 172.936C190.114 168.259 193.944 163.062 197.105 157.459C200.641 151.463 202.76 144.737 203.299 137.796C203.718 131.2 203.718 124.584 203.299 117.988C202.797 110.525 201.673 103.133 200.716 95.7175C199.592 86.8426 198.325 77.9677 197.153 69.0928C196.053 60.7442 195.048 52.3477 193.948 44.023C193.715 41.4392 192.958 38.9298 191.725 36.6475C190.491 34.3652 188.807 32.3575 186.774 30.7466C186.314 30.4059 185.875 30.0385 185.458 29.6462L176.418 21.8956L175.892 21.5607ZM4.80262 105.286C5.04177 105.119 5.16135 105.095 5.18526 105.023C5.20918 104.951 5.49616 104.329 5.63965 103.97C7.46886 99.7653 10.6281 96.2775 14.6318 94.043C20.1902 91.0437 26.53 89.8088 32.8074 90.5026C36.8103 90.955 40.7168 92.0368 44.3824 93.7081L45.7694 94.2583C45.6507 93.8577 45.4181 93.5003 45.0998 93.2297C43.0555 91.5027 41.3935 89.3685 40.22 86.9631C39.0464 84.5577 38.3871 81.934 38.284 79.2595C38.2043 78.7063 37.9336 78.1985 37.5187 77.8242C35.8685 76.2932 34.1466 74.834 32.4726 73.3509L31.2529 72.2505L31.492 71.9634C33.9008 73.4865 36.1733 75.2153 38.284 77.1305C38.5231 75.5277 38.7384 74.1163 39.0014 72.5136L23.9348 60.2418L24.174 59.9548C29.4755 63.5846 34.5472 67.5392 39.3602 71.796C39.5423 71.377 39.75 70.9695 39.9819 70.576C40.4107 69.8608 40.6626 69.0536 40.7167 68.2215C40.7707 67.3893 40.6254 66.5563 40.2929 65.7916C39.616 63.5534 39.073 61.2768 38.6666 58.974C38.3318 57.3713 38.1883 55.7685 37.9492 54.0462C36.9925 53.6634 36.1077 53.2089 35.1511 52.9218C32.1071 52.0482 28.9381 51.6924 25.7763 51.8693C20.7763 51.9719 16.0003 53.9632 12.4077 57.443C10.5137 59.1289 9.14716 61.3263 8.47254 63.7708C7.79792 66.2154 7.84397 68.8029 8.60514 71.2218C9.45607 74.0199 10.6787 76.6911 12.2403 79.1638C13.2686 80.9101 12.9338 81.7712 11.0445 82.3932C10.6858 82.3932 10.3031 82.6324 9.96831 82.7759C7.99119 83.4561 6.30435 84.789 5.18526 86.5555C3.00566 90.0712 1.95411 94.17 2.17194 98.301C2.29452 100.848 3.21484 103.291 4.80262 105.286ZM43.067 68.3273C42.6844 69.2842 42.3974 70.1454 41.9908 70.9348C40.4908 74.2271 40.0238 77.897 40.6516 81.4603C41.0609 84.5688 42.4324 87.4713 44.5737 89.761C45.3619 90.6609 46.2002 91.5154 47.0848 92.3206C51.6765 96.2677 56.2922 100.143 60.86 104.066C63.6341 106.458 66.4561 108.85 69.039 111.243C72.0762 114.257 74.97 117.486 77.8398 120.811C81.8011 125.368 86.0085 129.704 90.4431 133.801C93.3276 136.435 96.7451 138.418 100.464 139.614C108.869 142.348 116.677 146.659 123.47 152.316C128.907 157.005 134.006 162.073 138.728 167.482C142.06 171.437 145.673 175.146 149.538 178.582C151.042 179.737 152.642 180.761 154.321 181.644C154.941 181.935 155.602 182.129 156.282 182.218C156.283 181.925 156.172 181.642 155.971 181.428C150.04 175.903 144.659 169.85 139.23 163.798C133.694 157.252 127.793 151.023 121.557 145.139C107.893 132.924 94.2138 120.779 80.5183 108.707C72.1599 101.668 64.2298 94.135 56.7705 86.1489C51.8332 80.9248 47.4642 75.1914 43.7366 69.045C43.568 68.8176 43.3842 68.6018 43.1866 68.3991L43.067 68.3273ZM124.642 2.7105L124.379 3.02148C125.001 4.9352 125.646 6.82501 126.196 8.73873C126.746 10.6525 127.225 12.5183 127.655 14.4321C128.086 16.3458 128.468 18.3552 128.851 20.3168C129.316 22.2036 129.557 24.1386 129.568 26.0819C127.56 18.1638 126.292 10.0305 123.111 2.47128C121.044 2.05245 118.913 2.05245 116.846 2.47128C114.473 3.06608 112.245 4.13176 110.293 5.605C107.232 7.61442 106.466 9.45638 106.921 14.0493C106.981 14.1254 107.053 14.1902 107.136 14.2407C107.296 14.3113 107.465 14.3596 107.638 14.3842C112.859 16.4287 117.125 20.3544 119.596 25.3881C122.463 30.6958 124.396 36.4572 125.312 42.4203C125.455 43.3293 125.622 44.2383 125.766 45.1234H126.077C126.388 44.2144 126.723 43.2815 127.057 42.3485C128.246 38.7547 130.242 35.4813 132.893 32.7799C134.742 31.0396 136.837 29.5807 139.111 28.4501L144.563 25.5556C144.337 22.7178 144.939 19.8754 146.298 17.3739C147.657 14.8725 149.713 12.8199 152.216 11.4658C152.073 11.083 152.025 10.8199 151.905 10.5568C150.769 8.2936 148.783 6.57316 146.381 5.77246C141.976 4.27777 137.202 4.27777 132.797 5.77246C133.251 7.7101 133.778 9.57598 134.112 11.4897C134.661 13.3931 134.784 15.3943 134.471 17.3505C133.78 13.3472 132.805 9.39818 131.553 5.53324L124.642 2.7105ZM142.459 136.671H142.65C142.65 136.384 142.65 136.121 142.65 135.858C142.22 132.963 141.646 130.093 141.407 127.174C140.988 119.331 141.204 111.468 142.052 103.659C142.626 97.7533 142.311 91.7945 141.12 85.9814C139.939 80.847 138.24 75.8457 136.05 71.0544C133.928 66.4625 132.323 61.6485 131.266 56.7015C130.26 51.9865 130.017 47.1404 130.549 42.3485C130.716 41.1524 130.979 39.9564 131.195 38.7603C130.437 39.8043 129.825 40.9472 129.377 42.1571C126.896 48.0959 125.644 54.4756 125.694 60.9116C125.694 63.1124 125.838 65.3132 125.957 67.514C126.022 69.1158 126.174 70.7129 126.412 72.2983C126.962 75.5516 127.655 78.781 128.229 82.0344C129.425 88.9238 130.621 95.8132 131.793 102.703C133.933 114 137.301 125.029 141.837 135.595C142.023 135.95 142.231 136.294 142.459 136.623V136.671Z" fill="#E6C28E"/>
</svg>
