<svg width="287" height="46" viewBox="0 0 287 46" fill="none" xmlns="http://www.w3.org/2000/svg">
<path fill-rule="evenodd" clip-rule="evenodd" d="M53.7835 13.6202C48.5141 13.1777 43.6325 29.3387 40.4872 29.3933C39.2169 29.47 37.5232 25.4222 35.4131 21.3698C33.2782 17.2621 30.7141 13.157 27.7275 13.3516C20.9737 13.8135 18.5702 29.0721 17.4365 29.9299C16.5413 30.5944 15.4476 29.8192 14.5385 29.0414C13.692 28.3209 13.0061 27.5991 12.7849 28.0383C12.3356 28.9454 19.0201 34.6828 20.2885 32.6626C22.6173 29.0721 25.4113 18.5731 27.8881 18.5238C30.7874 18.5238 34.2513 33.2045 40.1666 33.2584C43.6179 33.2824 46.4125 29.4233 48.7027 25.5655C51.0002 21.6891 52.7864 17.8133 54.2194 17.8706C64.1912 18.3198 63.664 40.0336 34.8425 39.8943C24.4975 39.8916 7.60537 35.6519 7.22746 24.2472C6.85355 15.3139 17.7377 6.06329 33.8048 6.25658C37.5632 6.3219 40.5699 6.79579 44.1797 7.50163C47.2377 7.76357 50.6169 8.2268 53.7076 8.49207L54.0775 7.17637L58.0586 7.76357L54.6673 6.20126L56.6289 5.02286C54.6733 3.5292 52.9497 1.57098 50.173 0.534545C48.8513 0.134636 47.1211 0 45.3948 0C44.2697 0 43.1493 0.0566538 42.1442 0.131303C39.1315 0.333924 37.1153 1.04443 34.5506 1.11108C27.4455 1.1784 20.1492 2.53742 15.8575 4.17572C4.38477 8.53006 -0.413471 17.5227 0.027762 25.2876C0.629625 35.7819 14.963 45.0511 32.807 45.0551C68.9221 45.0671 70.4298 15.0699 53.7835 13.6202ZM46.9091 2.84402C47.473 2.87601 47.9102 3.16061 47.8882 3.48121C47.8662 3.80314 47.3897 4.03842 46.8258 4.00642C46.2606 3.9771 45.8233 3.69049 45.8467 3.36857C45.8687 3.04664 46.3439 2.81136 46.9091 2.84402Z" fill="url(#paint0_linear_0_165)"/>
<path d="M95.34 29.3999C93.9667 29.3999 92.78 29.1066 91.78 28.5199C90.7933 27.9199 90.04 27.1066 89.52 26.0799C89 25.0532 88.74 23.8932 88.74 22.5999C88.74 21.2666 89.0267 20.0532 89.6 18.9599C90.1733 17.8532 90.96 16.9866 91.96 16.3599C92.9733 15.7199 94.1 15.3999 95.34 15.3999C96.5133 15.3999 97.4933 15.5532 98.28 15.8599C99.0667 16.1532 99.6667 16.5399 100.08 17.0199C100.32 17.3266 100.467 17.7066 100.52 18.1599C100.573 18.6132 100.6 19.2466 100.6 20.0599H100C99.7467 18.8332 99.28 17.8999 98.6 17.2599C97.92 16.6199 97.0333 16.2999 95.94 16.2999C94.58 16.2999 93.5067 16.7799 92.72 17.7399C91.9333 18.6999 91.54 20.3199 91.54 22.5999C91.54 24.2932 91.9 25.6999 92.62 26.8199C93.34 27.9399 94.4467 28.4999 95.94 28.4999C96.8733 28.4999 97.7267 28.2532 98.5 27.7599C99.2867 27.2666 99.92 26.5599 100.4 25.6399L101.1 26.1799C100.46 27.2999 99.6867 28.1199 98.78 28.6399C97.8733 29.1466 96.7267 29.3999 95.34 29.3999Z" fill="#B77F41"/>
<path d="M118.514 29.8999C117.074 29.8999 116.034 29.5666 115.394 28.8999C114.768 28.2199 114.454 27.1199 114.454 25.5999V18.5199L110.074 28.9999H109.414L104.054 18.1199V28.9999H103.054V15.7999H105.494L110.334 25.6199L114.434 15.7999H117.054V25.5999C117.054 26.8532 117.161 27.7732 117.374 28.3599C117.588 28.9466 117.968 29.2932 118.514 29.3999V29.8999Z" fill="#B77F41"/>
<path d="M119.863 22.7599H125.443V24.6599H119.863V22.7599Z" fill="#B77F41"/>
<path d="M138.999 29.1999C138.159 29.1999 137.352 29.0332 136.579 28.6999C135.819 28.3532 134.999 27.7199 134.119 26.7999L130.899 23.4399V28.9999H128.299L128.279 18.3999C128.279 17.7199 128.186 17.2199 127.999 16.8999C127.812 16.5666 127.439 16.3999 126.879 16.3999H126.679V15.7999H129.079C129.546 15.7999 129.906 15.8799 130.159 16.0399C130.426 16.1999 130.612 16.4666 130.719 16.8399C130.839 17.2132 130.899 17.7332 130.899 18.3999V22.1999L134.359 17.8999C134.852 17.2599 135.379 16.7532 135.939 16.3799C136.512 15.9932 137.166 15.7999 137.899 15.7999H139.299V16.4999C138.472 16.4999 137.759 16.6066 137.159 16.8199C136.572 17.0199 136.066 17.3866 135.639 17.9199L132.659 21.5999L137.279 26.3999C137.772 26.9466 138.326 27.4266 138.939 27.8399C139.566 28.2399 140.072 28.4666 140.459 28.5199V28.9999C140.059 29.1332 139.572 29.1999 138.999 29.1999Z" fill="#B77F41"/>
<path d="M146.297 29.3999C145.004 29.3999 143.85 29.0932 142.837 28.4799C141.837 27.8666 141.064 27.0266 140.517 25.9599C139.97 24.8932 139.697 23.7066 139.697 22.3999C139.697 21.0932 139.97 19.9066 140.517 18.8399C141.064 17.7732 141.837 16.9332 142.837 16.3199C143.85 15.7066 145.004 15.3999 146.297 15.3999C147.59 15.3999 148.737 15.7066 149.737 16.3199C150.737 16.9332 151.51 17.7732 152.057 18.8399C152.604 19.9066 152.877 21.0932 152.877 22.3999C152.877 23.7066 152.604 24.8932 152.057 25.9599C151.51 27.0266 150.737 27.8666 149.737 28.4799C148.737 29.0932 147.59 29.3999 146.297 29.3999ZM146.297 28.4999C147.51 28.4999 148.45 27.9732 149.117 26.9199C149.784 25.8532 150.117 24.3466 150.117 22.3999C150.117 20.4532 149.784 18.9532 149.117 17.8999C148.45 16.8332 147.51 16.2999 146.297 16.2999C145.084 16.2999 144.144 16.8332 143.477 17.8999C142.824 18.9532 142.497 20.4532 142.497 22.3999C142.497 24.3466 142.824 25.8532 143.477 26.9199C144.144 27.9732 145.084 28.4999 146.297 28.4999Z" fill="#B77F41"/>
<path d="M160.965 29.3999C159.592 29.3999 158.405 29.1066 157.405 28.5199C156.418 27.9199 155.665 27.1066 155.145 26.0799C154.625 25.0532 154.365 23.8932 154.365 22.5999C154.365 21.2666 154.652 20.0532 155.225 18.9599C155.798 17.8532 156.585 16.9866 157.585 16.3599C158.598 15.7199 159.725 15.3999 160.965 15.3999C162.138 15.3999 163.118 15.5532 163.905 15.8599C164.692 16.1532 165.292 16.5399 165.705 17.0199C165.945 17.3266 166.092 17.7066 166.145 18.1599C166.198 18.6132 166.225 19.2466 166.225 20.0599H165.625C165.372 18.8332 164.905 17.8999 164.225 17.2599C163.545 16.6199 162.658 16.2999 161.565 16.2999C160.205 16.2999 159.132 16.7799 158.345 17.7399C157.558 18.6999 157.165 20.3199 157.165 22.5999C157.165 24.2932 157.525 25.6999 158.245 26.8199C158.965 27.9399 160.072 28.4999 161.565 28.4999C162.498 28.4999 163.352 28.2532 164.125 27.7599C164.912 27.2666 165.545 26.5599 166.025 25.6399L166.725 26.1799C166.085 27.2999 165.312 28.1199 164.405 28.6399C163.498 29.1466 162.352 29.3999 160.965 29.3999Z" fill="#B77F41"/>
<path d="M184.139 29.8999C182.699 29.8999 181.659 29.5666 181.019 28.8999C180.393 28.2199 180.079 27.1199 180.079 25.5999V18.5199L175.699 28.9999H175.039L169.679 18.1199V28.9999H168.679V15.7999H171.119L175.959 25.6199L180.059 15.7999H182.679V25.5999C182.679 26.8532 182.786 27.7732 182.999 28.3599C183.213 28.9466 183.593 29.2932 184.139 29.3999V29.8999Z" fill="#B77F41"/>
<path d="M186.443 18.3999C186.443 17.7199 186.35 17.2199 186.163 16.8999C185.976 16.5666 185.603 16.3999 185.043 16.3999H184.843V15.7999H193.663C194.796 15.7999 195.363 16.3332 195.363 17.3999V19.0999H194.763C194.763 18.2732 194.55 17.6666 194.123 17.2799C193.71 16.8932 193.09 16.6999 192.263 16.6999H189.043V21.6999H194.243V22.5999H189.043V28.0999H192.463C193.223 28.0999 193.856 27.9332 194.363 27.5999C194.87 27.2532 195.29 26.6599 195.623 25.8199L196.163 26.0199L195.583 27.5999C195.41 28.0799 195.203 28.4332 194.963 28.6599C194.723 28.8866 194.35 28.9999 193.843 28.9999H186.443V18.3999Z" fill="#B77F41"/>
<path d="M201.175 16.6999H199.755C199.008 16.6999 198.435 16.8866 198.035 17.2599C197.648 17.6332 197.455 18.2466 197.455 19.0999H196.855V17.3999C196.855 16.3332 197.422 15.7999 198.555 15.7999H207.955V16.6999H203.775V28.9999H201.175V16.6999Z" fill="#B77F41"/>
<path d="M214.578 29.3999C213.285 29.3999 212.132 29.0932 211.118 28.4799C210.118 27.8666 209.345 27.0266 208.798 25.9599C208.252 24.8932 207.978 23.7066 207.978 22.3999C207.978 21.0932 208.252 19.9066 208.798 18.8399C209.345 17.7732 210.118 16.9332 211.118 16.3199C212.132 15.7066 213.285 15.3999 214.578 15.3999C215.872 15.3999 217.018 15.7066 218.018 16.3199C219.018 16.9332 219.792 17.7732 220.338 18.8399C220.885 19.9066 221.158 21.0932 221.158 22.3999C221.158 23.7066 220.885 24.8932 220.338 25.9599C219.792 27.0266 219.018 27.8666 218.018 28.4799C217.018 29.0932 215.872 29.3999 214.578 29.3999ZM214.578 28.4999C215.792 28.4999 216.732 27.9732 217.398 26.9199C218.065 25.8532 218.398 24.3466 218.398 22.3999C218.398 20.4532 218.065 18.9532 217.398 17.8999C216.732 16.8332 215.792 16.2999 214.578 16.2999C213.365 16.2999 212.425 16.8332 211.758 17.8999C211.105 18.9532 210.778 20.4532 210.778 22.3999C210.778 24.3466 211.105 25.8532 211.758 26.9199C212.425 27.9732 213.365 28.4999 214.578 28.4999Z" fill="#B77F41"/>
<path d="M222.517 29.2999C222.077 29.2999 221.677 29.2399 221.317 29.1199V28.4999C221.97 28.3666 222.523 28.0132 222.977 27.4399C223.43 26.8666 223.79 25.8666 224.057 24.4399C224.337 22.9999 224.477 20.9866 224.477 18.3999C224.477 17.7199 224.383 17.2199 224.197 16.8999C224.01 16.5666 223.637 16.3999 223.077 16.3999H222.877V15.7999H233.577V28.9999H230.977V16.6999H226.657V18.3999C226.657 22.3999 226.29 25.2199 225.557 26.8599C224.837 28.4866 223.823 29.2999 222.517 29.2999Z" fill="#B77F41"/>
<path d="M242.391 29.3999C241.097 29.3999 239.944 29.0932 238.931 28.4799C237.931 27.8666 237.157 27.0266 236.611 25.9599C236.064 24.8932 235.791 23.7066 235.791 22.3999C235.791 21.0932 236.064 19.9066 236.611 18.8399C237.157 17.7732 237.931 16.9332 238.931 16.3199C239.944 15.7066 241.097 15.3999 242.391 15.3999C243.684 15.3999 244.831 15.7066 245.831 16.3199C246.831 16.9332 247.604 17.7732 248.151 18.8399C248.697 19.9066 248.971 21.0932 248.971 22.3999C248.971 23.7066 248.697 24.8932 248.151 25.9599C247.604 27.0266 246.831 27.8666 245.831 28.4799C244.831 29.0932 243.684 29.3999 242.391 29.3999ZM242.391 28.4999C243.604 28.4999 244.544 27.9732 245.211 26.9199C245.877 25.8532 246.211 24.3466 246.211 22.3999C246.211 20.4532 245.877 18.9532 245.211 17.8999C244.544 16.8332 243.604 16.2999 242.391 16.2999C241.177 16.2999 240.237 16.8332 239.571 17.8999C238.917 18.9532 238.591 20.4532 238.591 22.3999C238.591 24.3466 238.917 25.8532 239.571 26.9199C240.237 27.9732 241.177 28.4999 242.391 28.4999Z" fill="#B77F41"/>
<path d="M251.502 18.3999C251.502 17.7199 251.408 17.2199 251.222 16.8999C251.035 16.5666 250.662 16.3999 250.102 16.3999H249.902V15.7999H258.482C259.615 15.7999 260.182 16.3332 260.182 17.3999V19.0999H259.582C259.582 18.2599 259.368 17.6532 258.942 17.2799C258.528 16.8932 257.908 16.6999 257.082 16.6999H254.102V28.9999H251.502V18.3999Z" fill="#B77F41"/>
<path d="M262.38 18.3999C262.38 17.7199 262.287 17.2199 262.1 16.8999C261.914 16.5666 261.54 16.3999 260.98 16.3999H260.78V15.7999H263.18C263.66 15.7999 264.027 15.8799 264.28 16.0399C264.534 16.1999 264.714 16.4666 264.82 16.8399C264.927 17.1999 264.98 17.7199 264.98 18.3999V26.3999L270.78 15.7999H273.18V28.9999H270.58V18.3999L264.78 28.9999H262.38V18.3999Z" fill="#B77F41"/>
<path d="M276.2 29.3199C275.96 29.3199 275.7 29.2999 275.42 29.2599C275.14 29.2199 274.947 29.1732 274.84 29.1199V28.6199C275.2 28.5532 275.58 28.3599 275.98 28.0399C276.38 27.7199 276.827 27.1799 277.32 26.4199L279.22 23.3999C278.367 23.2132 277.613 22.8066 276.96 22.1799C276.307 21.5532 275.98 20.7532 275.98 19.7799C275.98 18.3132 276.527 17.2866 277.62 16.6999C278.727 16.0999 279.98 15.7999 281.38 15.7999H286.9V16.3999H286.7C286.14 16.3999 285.767 16.5666 285.58 16.8999C285.393 17.2199 285.3 17.7199 285.3 18.3999V28.9999H282.68V23.5599H281.8L280 26.4199C279.333 27.4732 278.7 28.2199 278.1 28.6599C277.5 29.0999 276.867 29.3199 276.2 29.3199ZM282.68 22.7599V16.7399C282.147 16.6466 281.713 16.5999 281.38 16.5999C280.967 16.5999 280.56 16.7199 280.16 16.9599C279.76 17.1866 279.427 17.5332 279.16 17.9999C278.907 18.4666 278.78 19.0266 278.78 19.6799C278.78 20.3599 278.907 20.9332 279.16 21.3999C279.427 21.8532 279.767 22.1932 280.18 22.4199C280.593 22.6466 281.027 22.7599 281.48 22.7599H282.68Z" fill="#B77F41"/>
<defs>
<linearGradient id="paint0_linear_0_165" x1="-9.83102e-05" y1="22.5277" x2="64" y2="22.5277" gradientUnits="userSpaceOnUse">
<stop stop-color="#A66C33"/>
<stop offset="0.0296" stop-color="#B57D3F"/>
<stop offset="0.0895" stop-color="#CB9A57"/>
<stop offset="0.1508" stop-color="#DDB269"/>
<stop offset="0.2138" stop-color="#E9C175"/>
<stop offset="0.2809" stop-color="#EEC87A"/>
<stop offset="0.6685" stop-color="#9B6737"/>
<stop offset="1" stop-color="#A8824C"/>
</linearGradient>
</defs>
</svg>
