<svg width="36" height="37" viewBox="0 0 36 37" fill="none" xmlns="http://www.w3.org/2000/svg">
<path d="M19.4522 23.5712C18.8124 23.5849 18.4708 23.0308 18.7164 22.5817C18.7873 22.4515 18.8969 22.3384 19.0032 22.231C22.0104 19.2203 25.0188 16.2119 28.0295 13.2047C28.1277 13.1064 28.2317 13.007 28.3494 12.935C28.6339 12.7637 28.9115 12.8048 29.1549 13.0219C29.3857 13.2287 29.4325 13.5829 29.2634 13.8525C29.1903 13.9702 29.0932 14.0753 28.9949 14.1736C25.9877 17.1831 22.9805 20.1938 19.9664 23.1976C19.7927 23.3713 19.5642 23.4901 19.4511 23.5712H19.4522Z" fill="#F4EDE8"/>
<path d="M1.33338 35.9999C0.912914 35.8354 0.787231 35.5063 0.787231 35.0813C0.790659 29.2462 0.789517 23.4111 0.790659 17.5772C0.790659 16.8791 0.974612 16.7134 1.86467 16.6174C1.87038 16.502 1.87953 16.3786 1.87953 16.2564C1.88067 15.4257 1.87953 14.5962 1.87953 13.7656C1.87953 13.0697 1.95608 12.96 2.61305 12.7315V12.3259C2.61305 9.5552 2.61305 6.78333 2.61305 4.01261C2.61305 3.91892 2.61077 3.82523 2.61305 3.73154C2.63133 3.03457 3.1055 2.7375 3.72706 3.04371C4.54399 3.44589 5.35636 3.85836 6.17101 4.26626C7.02793 4.69472 7.88029 5.13118 8.74292 5.54479C9.12797 5.72989 9.29021 6.00182 9.28793 6.42914C9.2765 8.39321 9.28336 10.3584 9.28336 12.3225C9.28336 12.4619 9.28336 12.6013 9.28336 12.7327C9.93691 12.9566 10.0329 13.0892 10.0329 13.7541C10.0329 14.5962 10.0329 15.4383 10.0329 16.2804C10.0329 16.3946 10.0329 16.5089 10.0329 16.6288C10.2066 16.6437 10.3459 16.6448 10.4819 16.6688C10.8784 16.7374 11.0715 16.9545 11.1 17.3532C11.1069 17.4469 11.1046 17.5406 11.1046 17.6331C11.1046 23.4328 11.1023 29.2325 11.1103 35.0322C11.1103 35.4663 11.0258 35.816 10.595 36.0022H1.33338V35.9999ZM2.18916 18.0456V34.598H9.72782V18.0445H2.18916V18.0456ZM7.92485 12.7567C7.92485 10.7652 7.92942 8.81482 7.91456 6.8656C7.91456 6.75705 7.78088 6.60623 7.67005 6.55025C6.5492 5.97554 5.42034 5.41682 4.29377 4.85468C4.20808 4.8124 4.11553 4.7827 4.01955 4.74499V12.7555H7.92485V12.7567ZM8.65038 14.1735H3.26774V16.6185H8.65038V14.1735Z" fill="#F4EDE8"/>
<path d="M32.3415 15.2132C32.2844 20.3444 29.0532 25.0335 24.2293 26.7383C19.6967 28.339 15.5606 27.5163 11.8633 24.4577C11.476 24.1366 11.4165 23.7379 11.685 23.4168C11.9501 23.1003 12.3466 23.0843 12.7408 23.4168C13.6411 24.1743 14.61 24.8142 15.6966 25.2735C17.6298 26.0904 19.6385 26.3635 21.7008 26.0024C25.6084 25.3192 28.4476 23.1483 30.0004 19.5184C31.6 15.781 31.1647 12.1488 28.8076 8.81595C27.1874 6.5251 24.9525 5.05347 22.2024 4.53475C17.8835 3.7201 14.2775 5.06262 11.4291 8.41491C11.3309 8.53031 11.244 8.65713 11.14 8.76682C10.8624 9.05703 10.4751 9.09588 10.194 8.87079C9.90721 8.64114 9.84323 8.21724 10.1083 7.89732C10.5768 7.33061 11.0395 6.7479 11.5788 6.25317C14.2513 3.80465 17.4139 2.67808 21.029 2.97743C24.1345 3.23451 26.7726 4.53703 28.9218 6.79932C30.4883 8.4469 31.5189 10.3915 31.9885 12.6138C32.169 13.4673 32.2284 14.346 32.3427 15.2143L32.3415 15.2132Z" fill="#F4EDE8"/>
<path d="M35.1373 15.6155C35.0414 19.811 33.3172 23.6569 29.8564 26.7018C29.6976 26.8412 29.4668 27.0058 29.2862 26.9875C29.0657 26.9658 28.8167 26.8047 28.6647 26.6299C28.4807 26.4185 28.5367 26.1317 28.7241 25.9215C28.9183 25.7044 29.148 25.5204 29.3605 25.3193C31.7256 23.0765 33.1835 20.3549 33.62 17.1191C34.1559 13.1419 33.1538 9.55419 30.6013 6.48183C27.7598 3.06327 24.0533 1.37113 19.5836 1.46939C16.2793 1.54251 13.3897 2.71936 10.8932 4.87652C10.7869 4.96793 10.6795 5.05933 10.5641 5.13703C10.2305 5.35869 9.84661 5.30727 9.62496 5.01935C9.39987 4.72571 9.42843 4.34866 9.73007 4.0733C10.0671 3.76595 10.4133 3.46774 10.7767 3.19352C12.7099 1.73332 14.8602 0.734719 17.2516 0.332535C22.1726 -0.493541 26.5212 0.741574 30.2277 4.09844C33.3755 6.95028 35.143 11.0053 35.1385 15.6155H35.1373Z" fill="#F4EDE8"/>
<path d="M15.6326 23.4889C15.0042 23.5003 14.6648 22.9404 14.9116 22.4926C14.9779 22.3726 15.0785 22.2675 15.1767 22.1681C19.234 18.1074 23.2935 14.049 27.3531 9.98945C27.5633 9.77922 27.7804 9.58155 28.1129 9.64554C28.5985 9.73923 28.8247 10.2511 28.563 10.6716C28.4956 10.779 28.4042 10.8738 28.314 10.9641C24.2636 15.0156 20.2132 19.0671 16.157 23.113C15.9834 23.2866 15.7537 23.4043 15.6337 23.4889H15.6326Z" fill="#F4EDE8"/>
</svg>
