<svg width="153" height="65" viewBox="0 0 153 65" fill="none" xmlns="http://www.w3.org/2000/svg">
<g clip-path="url(#clip0_0_62)">
<path fill-rule="evenodd" clip-rule="evenodd" d="M96.1035 12.3493C91.3615 11.948 86.9686 26.6009 84.1381 26.6505C82.9949 26.72 81.4708 23.05 79.5719 19.3757C77.6507 15.6513 75.3433 11.9293 72.6556 12.1057C66.5778 12.5245 64.4149 26.3592 63.3947 27.137C62.5891 27.7395 61.6049 27.0366 60.7867 26.3314C60.025 25.6781 59.4078 25.0237 59.2086 25.4219C58.8044 26.2444 64.8198 31.4464 65.9612 29.6147C68.0569 26.3592 70.5713 16.84 72.8001 16.7952C75.4092 16.7952 78.5264 30.106 83.8496 30.1549C86.9554 30.1767 89.4704 26.6777 91.5313 23.1799C93.5988 19.6652 95.2062 16.151 96.4958 16.203C105.469 16.6103 104.995 36.2978 79.0584 36.1715C69.7489 36.1691 54.5476 32.3251 54.2075 21.9845C53.871 13.8848 63.6658 5.49749 78.1245 5.67275C81.5068 5.73197 84.2125 6.16164 87.461 6.80162C90.2129 7.03911 93.2539 7.45912 96.0352 7.69964L96.3681 6.50671L99.9507 7.03911L96.8989 5.62259L98.6641 4.55415C96.9043 3.19987 95.3532 1.42438 92.8544 0.484664C91.665 0.122073 90.1079 0 88.5545 0C87.542 0 86.5337 0.0513672 85.6292 0.119051C82.9181 0.302764 81.1037 0.946969 78.7957 1.0074C72.4018 1.06844 65.8358 2.30064 61.9737 3.78606C51.6494 7.73408 47.3314 15.8876 47.7285 22.9279C48.2701 32.4429 61.1688 40.8472 77.2266 40.8508C109.727 40.8617 111.084 13.6637 96.1035 12.3493ZM89.9172 2.57863C90.4246 2.60764 90.8181 2.86568 90.7983 3.15636C90.7785 3.44825 90.3497 3.66157 89.8422 3.63256C89.3336 3.60597 88.9401 3.34612 88.9611 3.05423C88.9809 2.76234 89.4086 2.54902 89.9172 2.57863Z" fill="url(#paint0_linear_0_62)"/>
<path d="M8.82966 57.2655C8.62273 56.2527 8.24065 55.5058 7.68284 55.035C7.13102 54.5473 6.40347 54.308 5.50796 54.308C4.98194 54.308 4.47571 54.3956 4.00606 54.5703C3.53762 54.7377 3.12916 55.0187 2.76868 55.4097C2.4148 55.7958 2.13289 56.3125 1.93196 56.9501C1.72502 57.5876 1.62126 58.363 1.62126 59.3045C1.62126 59.8853 1.69324 60.4575 1.84678 61.0256C1.98594 61.5816 2.21926 62.0844 2.52936 62.5201C2.83705 62.9624 3.24492 63.3166 3.73555 63.5885C4.22379 63.8538 4.81759 63.985 5.51336 63.985C6.31949 63.985 7.01646 63.797 7.59767 63.429C8.18127 63.0561 8.7001 62.5201 9.15295 61.8028L9.47804 62.0421C9.21593 62.5334 8.93342 62.9347 8.61553 63.258C8.29224 63.5934 7.95035 63.8538 7.58207 64.0581C7.2126 64.2623 6.81913 64.405 6.39207 64.4853C5.96381 64.5718 5.50796 64.6092 5.02213 64.6092C4.25318 64.6092 3.56161 64.472 2.94202 64.2019C2.32123 63.9281 1.788 63.5408 1.34835 63.0628C0.914095 62.586 0.577607 62.0264 0.341886 61.3809C0.115162 60.7355 0 60.0382 0 59.3039C0 58.5213 0.134955 57.7883 0.398267 57.1084C0.662179 56.4261 1.02206 55.8363 1.47071 55.3226C1.92776 54.8162 2.46398 54.415 3.07038 54.1213C3.68157 53.833 4.32996 53.6855 5.02213 53.6855C5.91763 53.6855 6.69557 53.8082 7.33376 54.0645C7.98634 54.2935 8.45898 54.592 8.74928 54.9335C8.95202 55.1722 9.07318 55.5058 9.10437 55.933C9.13855 56.3591 9.15355 56.805 9.15355 57.2655H8.82966Z" fill="#4E2B00"/>
<path d="M23.4348 65.0005C22.8512 65.0005 22.3641 64.9358 21.9743 64.8137C21.5862 64.6747 21.2755 64.4771 21.053 64.201C20.8202 63.9332 20.6661 63.587 20.5731 63.1573C20.4754 62.7276 20.4322 62.2297 20.4322 61.6501V55.6378L16.3829 64.2977H16.0578L11.8292 55.4818V64.2977H11.1851V54.0049H12.7331L16.6228 62.1136L20.4322 54.0049H21.8867V61.6507C21.8867 62.5929 22.0144 63.3398 22.2622 63.877C22.5081 64.4209 22.9016 64.688 23.4348 64.688V65.0005Z" fill="#4E2B00"/>
<path d="M28.331 59.627H24.2014V60.7117H28.331V59.627Z" fill="#4E2B00"/>
<path d="M30.6396 54.0049C30.9215 54.0049 31.1554 54.0248 31.3408 54.0695C31.5351 54.1106 31.6844 54.2085 31.7966 54.353C31.9082 54.4914 31.9873 54.6872 32.0311 54.9265C32.0713 55.1718 32.1001 55.4921 32.1001 55.8698V58.9126L35.5022 55.6384C35.7085 55.4377 35.9064 55.2456 36.0948 55.0588C36.2801 54.8691 36.4834 54.6872 36.694 54.5349C36.9063 54.3741 37.136 54.2527 37.3879 54.1487C37.6483 54.0496 37.9356 54.0049 38.2594 54.0049H39.0686V54.3886C38.6289 54.3886 38.2349 54.4642 37.893 54.614C37.5553 54.7748 37.1606 55.0588 36.718 55.483L33.5456 58.5222L37.283 62.2635C37.7298 62.7047 38.1959 63.092 38.6889 63.4178C39.1813 63.7387 39.633 63.9405 40.0475 63.9846V64.2995C39.9281 64.3406 39.7829 64.3762 39.6162 64.4046C39.4477 64.433 39.2377 64.4554 38.9882 64.4554C38.7633 64.4554 38.5276 64.4258 38.2864 64.381C38.0417 64.3315 37.7772 64.2463 37.4887 64.1073C37.205 63.9598 36.8997 63.7731 36.5716 63.535C36.2483 63.2896 35.8932 62.9766 35.5022 62.5753L32.1001 59.1452V64.2995H30.6396V55.8698C30.6396 55.4039 30.5736 55.0189 30.4411 54.7379C30.3073 54.4545 29.9984 54.3083 29.5096 54.3083H29.1863V54.0049H30.6396Z" fill="#4E2B00"/>
<path d="M39.2983 59.1453C39.2983 58.3924 39.4152 57.6817 39.6498 57.0163C39.8789 56.3413 40.2148 55.7696 40.6538 55.268C41.0917 54.7803 41.6225 54.3887 42.2391 54.1041C42.8599 53.834 43.5569 53.6865 44.3234 53.6865C45.0912 53.6865 45.7857 53.834 46.4065 54.1041C47.0303 54.3887 47.5551 54.7803 47.9972 55.268C48.4344 55.7696 48.7679 56.3407 49.0024 57.0163C49.2358 57.6823 49.3515 58.3924 49.3515 59.1453C49.3515 59.9159 49.2358 60.635 49.0024 61.2937C48.7679 61.9548 48.4344 62.5332 47.9972 63.0275C47.5551 63.5188 47.0303 63.9044 46.4065 64.195C45.7857 64.4724 45.0918 64.6096 44.3234 64.6096C43.5575 64.6096 42.8605 64.4724 42.2391 64.195C41.6231 63.905 41.0923 63.5188 40.6538 63.0275C40.2154 62.5332 39.8789 61.9548 39.6498 61.2937C39.4152 60.6344 39.2983 59.9159 39.2983 59.1453ZM47.7273 59.1453C47.7273 58.4075 47.6493 57.7397 47.4886 57.1432C47.3392 56.5516 47.1065 56.0349 46.8234 55.6137C46.5271 55.1961 46.1696 54.8758 45.7509 54.6444C45.3359 54.425 44.8542 54.3078 44.3234 54.3078C43.7974 54.3078 43.3229 54.4244 42.8989 54.6444C42.4736 54.8758 42.1215 55.1955 41.833 55.6137C41.5397 56.0349 41.3166 56.5522 41.1589 57.1432C41.0023 57.7391 40.9225 58.4075 40.9225 59.1453C40.9225 59.8856 41.0023 60.5546 41.1589 61.1553C41.3166 61.7524 41.5397 62.2636 41.833 62.6782C42.1215 63.0982 42.4736 63.4288 42.8989 63.6518C43.3229 63.8772 43.7974 63.9847 44.3234 63.9847C44.8542 63.9847 45.3359 63.8772 45.7509 63.6518C46.1696 63.4288 46.5271 63.0982 46.8234 62.6782C47.1071 62.2636 47.3392 61.753 47.4886 61.1553C47.6493 60.5546 47.7273 59.885 47.7273 59.1453Z" fill="#4E2B00"/>
<path d="M59.3652 57.2659C59.1625 56.2531 58.7828 55.5061 58.2256 55.0354C57.6678 54.5477 56.9444 54.3084 56.0495 54.3084C55.5163 54.3084 55.0173 54.396 54.5476 54.5706C54.0774 54.738 53.6641 55.0191 53.3126 55.41C52.9516 55.7962 52.6714 56.3129 52.4669 56.9505C52.2642 57.588 52.155 58.3634 52.155 59.3049C52.155 59.8856 52.2324 60.4579 52.3763 61.026C52.5257 61.582 52.7512 62.0848 53.0661 62.5205C53.3786 62.9628 53.7805 63.317 54.2717 63.5889C54.7636 63.8542 55.3532 63.9853 56.0489 63.9853C56.8551 63.9853 57.552 63.7974 58.1398 63.4294C58.7162 63.0565 59.2411 62.5205 59.6921 61.8031L60.019 62.0425C59.7545 62.5338 59.4696 62.935 59.1451 63.2583C58.8302 63.5937 58.4865 63.8542 58.12 64.0585C57.7536 64.2627 57.3529 64.4053 56.9288 64.4857C56.503 64.5721 56.0489 64.6096 55.5589 64.6096C54.7911 64.6096 54.0984 64.4724 53.4728 64.2023C52.8532 63.9285 52.3272 63.5412 51.8899 63.0631C51.4491 62.5863 51.1144 62.0267 50.8822 61.3813C50.6489 60.7371 50.538 60.0391 50.538 59.3049C50.538 58.5223 50.6669 57.7893 50.9314 57.1094C51.1953 56.4271 51.5546 55.8373 52.0123 55.3236C52.4663 54.8172 52.9959 54.4159 53.6059 54.1222C54.2159 53.834 54.8643 53.6865 55.5583 53.6865C56.4526 53.6865 57.2221 53.8092 57.8747 54.0654C58.5261 54.2945 58.9933 54.593 59.2806 54.9344C59.493 55.1732 59.6087 55.5067 59.6417 55.934C59.6711 56.36 59.6921 56.806 59.6921 57.2665H59.3652V57.2659Z" fill="#4E2B00"/>
<path d="M73.9692 65.0005C73.3837 65.0005 72.9027 64.9358 72.5134 64.8137C72.1164 64.6747 71.8129 64.4771 71.5843 64.201C71.3618 63.9332 71.1987 63.587 71.1039 63.1573C71.0163 62.7276 70.969 62.2297 70.969 61.6501V55.6378L66.9179 64.2977H66.5934L62.3714 55.4818V64.2977H61.7236V54.0049H63.2717L67.1608 62.1136L70.969 54.0049H72.4181V61.6507C72.4181 62.5929 72.5422 63.3398 72.7989 63.877C73.0521 64.4209 73.4365 64.688 73.9686 64.688V65.0005H73.9692Z" fill="#4E2B00"/>
<path d="M80.9796 54.0049C81.2609 54.0049 81.4906 54.0333 81.6682 54.104C81.8475 54.1868 81.9891 54.275 82.091 54.3886C82.1954 54.5053 82.2608 54.6364 82.304 54.7899C82.3417 54.9337 82.3627 55.086 82.3627 55.2456V56.4143H82.0311C82.0311 55.7913 81.8565 55.3392 81.505 55.0594C81.1535 54.7681 80.6533 54.6213 80.0055 54.6213H76.9915V58.6769H81.3659V59.3011H76.9915V63.68H79.831C80.5645 63.68 81.1451 63.541 81.5752 63.28C82.0005 63.0274 82.3411 62.5862 82.5883 61.9638L82.9152 62.0417L82.3483 63.5181C82.2608 63.7598 82.115 63.9514 81.9123 64.0867C81.7204 64.2318 81.4516 64.2995 81.1284 64.2995H75.5358V55.8698C75.5358 55.4039 75.4704 55.0189 75.3319 54.7379C75.1993 54.4545 74.8892 54.3083 74.4046 54.3083H74.0795V54.0049H80.9796Z" fill="#4E2B00"/>
<path d="M92.3608 54.0045V54.6209H88.708V64.2997H87.2565V54.6203H85.8026C85.1548 54.6203 84.6498 54.7666 84.2983 55.0584C83.9516 55.3382 83.7699 55.7903 83.7699 56.4133H83.4538V55.2446C83.4538 55.085 83.4712 54.9327 83.5066 54.7889C83.5486 54.6354 83.6211 54.5043 83.7231 54.3877C83.8239 54.274 83.9654 54.1858 84.1412 54.103C84.3193 54.0323 84.549 54.0039 84.8279 54.0039H92.3608V54.0045Z" fill="#4E2B00"/>
<path d="M92.368 59.1453C92.368 58.3924 92.4826 57.6817 92.7099 57.0163C92.9432 56.3413 93.2803 55.7696 93.72 55.268C94.1614 54.7803 94.685 54.3887 95.3064 54.1041C95.9296 53.834 96.6302 53.6865 97.3931 53.6865C98.1567 53.6865 98.8554 53.834 99.4726 54.1041C100.103 54.3887 100.627 54.7803 101.065 55.268C101.504 55.7696 101.842 56.3407 102.072 57.0163C102.302 57.6823 102.418 58.3924 102.418 59.1453C102.418 59.9159 102.302 60.635 102.072 61.2937C101.842 61.9548 101.504 62.5332 101.065 63.0275C100.627 63.5188 100.102 63.9044 99.4726 64.195C98.8554 64.4724 98.1573 64.6096 97.3931 64.6096C96.6308 64.6096 95.9302 64.4724 95.3064 64.195C94.6856 63.905 94.162 63.5188 93.72 63.0275C93.2809 62.5332 92.9432 61.9548 92.7099 61.2937C92.4826 60.6344 92.368 59.9159 92.368 59.1453ZM100.796 59.1453C100.796 58.4075 100.719 57.7397 100.558 57.1432C100.401 56.5516 100.182 56.0349 99.8853 55.6137C99.5962 55.1961 99.2339 54.8758 98.8195 54.6444C98.3906 54.425 97.9162 54.3078 97.3925 54.3078C96.8605 54.3078 96.3825 54.4244 95.9656 54.6444C95.5487 54.8758 95.1877 55.1955 94.895 55.6137C94.5987 56.0349 94.3785 56.5522 94.225 57.1432C94.0654 57.7391 93.9881 58.4075 93.9881 59.1453C93.9881 59.8856 94.0654 60.5546 94.225 61.1553C94.3785 61.7524 94.5987 62.2636 94.895 62.6782C95.1877 63.0982 95.5487 63.4288 95.9656 63.6518C96.3825 63.8772 96.8605 63.9847 97.3925 63.9847C97.9162 63.9847 98.3906 63.8772 98.8195 63.6518C99.2339 63.4288 99.5962 63.0982 99.8853 62.6782C100.182 62.2636 100.401 61.753 100.558 61.1553C100.719 60.5546 100.796 59.885 100.796 59.1453Z" fill="#4E2B00"/>
<path d="M105.166 55.8698C105.166 55.4039 105.099 55.0353 104.967 54.7379C104.828 54.4545 104.512 54.3083 104.028 54.3083H103.869V54.0049H111.89V64.2983H110.434V54.6207H106.39V55.8692C106.39 57.6465 106.306 59.0951 106.129 60.2058C105.971 61.3202 105.741 62.191 105.454 62.8237C105.166 63.4468 104.839 63.8813 104.463 64.1151C104.093 64.3406 103.705 64.4554 103.301 64.4554C103.186 64.4554 103.05 64.4403 102.897 64.4131C102.748 64.3919 102.61 64.3539 102.486 64.3115V63.9278C102.728 63.9103 102.963 63.871 103.185 63.7731C103.416 63.6879 103.626 63.5344 103.817 63.3162C104.013 63.0981 104.191 62.8026 104.368 62.4345C104.531 62.0472 104.671 61.5716 104.782 60.9793C104.9 60.3974 104.994 59.6843 105.057 58.8431C105.136 58.0073 105.166 57.0156 105.166 55.8698Z" fill="#4E2B00"/>
<path d="M113.754 59.1453C113.754 58.3924 113.87 57.6817 114.099 57.0163C114.331 56.3413 114.666 55.7696 115.109 55.268C115.545 54.7803 116.071 54.3887 116.692 54.1041C117.315 53.834 118.012 53.6865 118.781 53.6865C119.549 53.6865 120.241 53.834 120.86 54.1041C121.479 54.3887 122.013 54.7803 122.452 55.268C122.891 55.7696 123.227 56.3407 123.45 57.0163C123.683 57.6823 123.802 58.3924 123.802 59.1453C123.802 59.9159 123.683 60.635 123.45 61.2937C123.227 61.9548 122.891 62.5332 122.452 63.0275C122.013 63.5188 121.479 63.9044 120.86 64.195C120.241 64.4724 119.549 64.6096 118.781 64.6096C118.012 64.6096 117.315 64.4724 116.692 64.195C116.071 63.905 115.545 63.5188 115.109 63.0275C114.666 62.5332 114.331 61.9548 114.099 61.2937C113.87 60.6344 113.754 59.9159 113.754 59.1453ZM122.177 59.1453C122.177 58.4075 122.097 57.7397 121.947 57.1432C121.789 56.5516 121.563 56.0349 121.267 55.6137C120.981 55.1961 120.622 54.8758 120.201 54.6444C119.778 54.425 119.304 54.3078 118.781 54.3078C118.248 54.3078 117.768 54.4244 117.346 54.6444C116.928 54.8758 116.574 55.1955 116.283 55.6137C115.992 56.0349 115.77 56.5522 115.613 57.1432C115.453 57.7391 115.376 58.4075 115.376 59.1453C115.376 59.8856 115.453 60.5546 115.613 61.1553C115.77 61.7524 115.992 62.2636 116.283 62.6782C116.574 63.0982 116.928 63.4288 117.346 63.6518C117.768 63.8772 118.248 63.9847 118.781 63.9847C119.304 63.9847 119.778 63.8772 120.201 63.6518C120.622 63.4288 120.981 63.0982 121.267 62.6782C121.563 62.2636 121.789 61.753 121.947 61.1553C122.097 60.5546 122.177 59.885 122.177 59.1453Z" fill="#4E2B00"/>
<path d="M125.883 55.8698C125.883 55.4039 125.813 55.0189 125.673 54.7379C125.541 54.4545 125.237 54.3083 124.752 54.3083H124.424V54.0049H131.152C131.431 54.0049 131.665 54.0333 131.839 54.104C132.017 54.1868 132.16 54.275 132.264 54.3886C132.369 54.5053 132.435 54.6364 132.471 54.7899C132.513 54.9337 132.536 55.086 132.536 55.2456V56.4143H132.204C132.204 55.7913 132.031 55.3392 131.678 55.0594C131.327 54.7681 130.833 54.6213 130.174 54.6213H127.33V64.2989H125.883V55.8698Z" fill="#4E2B00"/>
<path d="M140.966 55.4033L135.768 64.2983H134.313V55.8698C134.313 55.4039 134.245 55.0189 134.115 54.7379C133.979 54.4545 133.665 54.3083 133.182 54.3083H132.853V54.0049H134.313C134.587 54.0049 134.822 54.0248 135.012 54.0695C135.199 54.1106 135.356 54.2085 135.464 54.353C135.579 54.4914 135.66 54.6872 135.7 54.9265C135.743 55.1718 135.768 55.4921 135.768 55.8698V62.8962L140.966 54.0049H142.411V64.2983H140.966V55.4033Z" fill="#4E2B00"/>
<path d="M150.251 60.088H148.675L146.976 63.0552C146.667 63.6111 146.328 63.9701 145.981 64.1659C145.628 64.3539 145.217 64.4554 144.743 64.4554C144.579 64.4554 144.405 64.433 144.227 64.3986C144.042 64.3702 143.887 64.3242 143.774 64.2807V63.9701C144.185 63.9332 144.527 63.7967 144.81 63.5876C145.091 63.3682 145.332 63.086 145.55 62.7282L147.256 59.9296C146.998 59.8813 146.722 59.7785 146.444 59.6535C146.161 59.5308 145.903 59.3573 145.678 59.141C145.45 58.9204 145.269 58.6509 145.12 58.3209C144.976 57.9867 144.903 57.5964 144.903 57.125C144.903 56.4264 145.046 55.8692 145.332 55.4492C145.628 55.0395 145.981 54.7222 146.406 54.5143C146.832 54.2937 147.273 54.1566 147.737 54.0931C148.2 54.0248 148.602 54.0049 148.948 54.0049H153.001V54.3083H152.842C152.353 54.3083 152.045 54.4545 151.908 54.7379C151.77 55.0189 151.701 55.4039 151.701 55.8698V64.2995H150.251V60.088H150.251ZM149.034 59.5441C149.243 59.5441 149.452 59.5314 149.674 59.4945C149.898 59.4637 150.083 59.4299 150.251 59.3906V54.7011C150.083 54.6563 149.898 54.6207 149.674 54.5923C149.452 54.5542 149.243 54.5427 149.034 54.5427C148.806 54.5427 148.552 54.5923 148.264 54.6678C147.975 54.7518 147.703 54.8944 147.448 55.0915C147.191 55.2969 146.966 55.5411 146.788 55.8692C146.615 56.1889 146.528 56.5799 146.528 57.0434C146.528 57.5154 146.615 57.9064 146.788 58.2236C146.966 58.5379 147.191 58.7996 147.448 59.0002C147.703 59.1984 147.975 59.332 148.264 59.4111C148.552 59.5036 148.806 59.5441 149.034 59.5441Z" fill="#4E2B00"/>
</g>
<defs>
<linearGradient id="paint0_linear_0_62" x1="47.7034" y1="20.4256" x2="105.297" y2="20.4256" gradientUnits="userSpaceOnUse">
<stop stop-color="#A66C33"/>
<stop offset="0.0296" stop-color="#B57D3F"/>
<stop offset="0.0895" stop-color="#CB9A57"/>
<stop offset="0.1508" stop-color="#DDB269"/>
<stop offset="0.2138" stop-color="#E9C175"/>
<stop offset="0.2809" stop-color="#EEC87A"/>
<stop offset="0.6685" stop-color="#9B6737"/>
<stop offset="1" stop-color="#A8824C"/>
</linearGradient>
<clipPath id="clip0_0_62">
<rect width="153" height="65" fill="white"/>
</clipPath>
</defs>
</svg>
