<svg width="40" height="58" viewBox="0 0 40 58" fill="none" xmlns="http://www.w3.org/2000/svg">
<g clip-path="url(#clip0_0_196)">
<path d="M21.6757 0C22.7002 0.194444 23.7544 0.32906 24.764 0.583333C32.3216 2.37821 38.3498 8.88462 39.7009 16.5727C40.4582 20.8803 39.7603 25.0085 38.3052 29.047C36.7017 33.5043 34.4151 37.6325 31.8019 41.5513C28.8472 45.9786 25.7737 50.3312 22.7596 54.7137C22.4181 55.2222 22.1063 55.7607 21.7202 56.2244C21.349 56.6731 20.8888 57.0321 20.473 57.4359C20.1761 57.4359 19.8791 57.4359 19.5821 57.4359C19.1664 57.0321 18.6616 56.688 18.3349 56.2244C15.1278 51.6325 11.9058 47.0406 8.78779 42.3889C6.10034 38.3803 3.69499 34.2073 1.97265 29.6603C0.725431 26.4744 -0.0911983 23.1987 0.0127363 19.7436C0.19091 13.8654 2.46262 8.9594 6.79818 5.05556C9.99046 2.1688 13.7618 0.538462 18.0231 0.104701C18.1271 0.0897436 18.231 0.0448718 18.3349 0C19.4485 0 20.5621 0 21.6757 0ZM19.9979 52.7094C20.1018 52.5897 20.1761 52.515 20.2206 52.4402C23.012 48.4017 25.8628 44.3932 28.5948 40.2949C31.2228 36.3611 33.5836 32.2628 35.1872 27.7756C36.4344 24.3056 37.058 20.7756 36.3899 17.0662C34.7418 7.91239 25.6104 1.73504 16.5829 3.72436C7.48118 5.72863 1.80932 14.6432 3.72469 23.8419C4.43738 27.2671 5.77369 30.453 7.3921 33.5192C9.81229 38.156 12.7819 42.4487 15.7811 46.7115C17.162 48.7009 18.5576 50.6752 19.9979 52.7094Z" fill="#E5C28E"/>
<path d="M20.0288 10.0962C25.567 10.0962 30.0214 14.6133 30.0214 20.2372C30.0214 25.8013 25.5373 30.2885 19.9991 30.2885C14.4609 30.2885 10.0065 25.7714 10.0065 20.1475C10.0065 14.5834 14.4906 10.0962 20.0288 10.0962ZM13.3324 20.1624C13.3176 23.827 16.302 26.8932 19.9397 26.9231C23.5923 26.968 26.6509 23.9167 26.6658 20.2223C26.6806 16.5428 23.6517 13.4616 19.9991 13.4616C16.3911 13.4616 13.3621 16.4979 13.3324 20.1624Z" fill="#E5C28E"/>
</g>
<defs>
<clipPath id="clip0_0_196">
<rect width="40" height="57.4359" fill="white"/>
</clipPath>
</defs>
</svg>
